<svg width="498" height="280" viewBox="0 0 498 280" fill="none" xmlns="http://www.w3.org/2000/svg">
<path d="M457.125 98.2679L454.304 91.1313L455.21 98.668L447.788 98.6532L454.028 101.378L449.753 106.871L455.409 102.816L458.498 109.239L458.684 102.132L465.926 104.481L459.502 99.6607L462.831 93.6242L457.125 98.2679Z" fill="#FFC969"/>
<path d="M39.8418 195.967C39.8418 195.967 40.452 201.104 41.9945 200.834C43.5367 200.565 42.6549 195.76 42.6549 195.76C42.6549 195.76 42.697 193.038 44.9923 191.187C47.2878 189.335 43.5311 189.756 43.5311 189.756L39.8418 195.967Z" fill="#250048"/>
<path d="M75.0448 140.416C75.0448 140.416 66.0676 158.126 48.9618 175.284C48.9618 175.284 36.0072 187.108 37.7564 200.277C37.821 200.751 38.1064 201.178 38.5486 201.36C39.327 201.68 40.1275 200.777 41.0959 196.45C42.49 190.217 45.2612 192.731 45.2612 192.731C45.2612 192.731 47.4894 197.772 49.2248 197C49.2248 197 50.2605 196.658 49.9191 194.173C49.6112 191.925 50.3669 189.664 51.9877 188.077C57.3006 182.873 69.5444 171.746 85.7852 162.424L75.0448 140.416Z" fill="#F9386A"/>
<path d="M63.5344 154.454L84.4948 158.067L85.1245 147.328C85.3934 142.696 82.1491 138.603 77.5862 137.818C72.9927 137.026 68.5476 139.84 67.288 144.337L63.5344 154.454Z" fill="#FFC969"/>
<path fill-rule="evenodd" clip-rule="evenodd" d="M63.2886 161.46C63.1639 161.595 63.1724 161.807 63.3082 161.931L65.6203 164.061C65.7561 164.186 65.9672 164.177 66.0919 164.041C66.2169 163.905 66.2081 163.694 66.0726 163.569L63.7603 161.44C63.6247 161.315 63.4134 161.324 63.2886 161.46Z" fill="#250048"/>
<path d="M64.9619 150.607L71.0978 151.738C71.7052 151.85 72.1084 152.434 71.9964 153.045C71.8983 153.587 71.4254 153.965 70.8962 153.965C70.829 153.965 70.7619 153.96 70.6919 153.946L64.1697 152.742L64.9619 150.607Z" fill="white"/>
<path d="M79.5011 181.475C79.5011 181.475 76.923 238.115 129.025 250.007C130.699 250.388 132.093 251.538 132.714 253.14L133.803 255.953C134.304 257.248 136.208 256.997 136.359 255.616L137.951 235.753C138.083 234.112 137.008 232.617 135.41 232.227C126.522 230.064 99.4288 220.337 100.591 182.252L79.5011 181.475Z" fill="#CD406C"/>
<path d="M79.5011 181.475C79.5011 181.475 76.923 238.115 129.025 250.007C130.699 250.388 132.093 251.538 132.714 253.14L133.803 255.953C134.304 257.248 136.208 256.997 136.359 255.616L137.951 235.753C138.083 234.112 137.008 232.617 135.41 232.227C126.522 230.064 99.4288 220.337 100.591 182.252L79.5011 181.475Z" fill="#CD406C"/>
<path d="M102.888 188.065L78.3028 189.594L76.6038 173.348L100.593 168.295L102.888 188.065Z" fill="#FFC969"/>
<path d="M88.649 178.226C88.649 178.226 55.0109 217.726 50.8457 263.521C50.7309 264.797 49.6699 265.777 48.3908 265.777H27.2344C26.0755 265.777 25.6584 264.242 26.6606 263.652L30.238 261.55C31.8028 260.631 32.8525 259.041 33.0819 257.236C34.4703 246.279 41.1408 205.766 66.4567 176.316L88.649 178.226Z" fill="#F9386A"/>
<path d="M69.7319 158.448H101.618V149.477C101.618 140.654 94.4795 133.5 85.6761 133.5C76.8727 133.5 69.7347 140.654 69.7347 149.477V158.448H69.7319Z" fill="#250048"/>
<path d="M69.9667 161.049H101.382C102.395 161.049 103.216 160.227 103.216 159.211C103.216 158.196 102.395 157.374 101.382 157.374H69.9667C68.9534 157.374 68.1333 158.196 68.1333 159.211C68.1305 160.227 68.9534 161.049 69.9667 161.049Z" fill="#250048"/>
<path fill-rule="evenodd" clip-rule="evenodd" d="M47.9417 211.372C47.7776 211.456 47.7125 211.657 47.7964 211.821L48.0938 211.669C47.7964 211.821 47.7966 211.821 47.7966 211.821L47.7969 211.822L47.7971 211.823L47.7986 211.825L47.8029 211.834C47.8067 211.84 47.8117 211.85 47.8185 211.862C47.8318 211.886 47.8508 211.921 47.8757 211.963C47.9254 212.047 47.9982 212.163 48.0931 212.297C48.2813 212.562 48.563 212.904 48.9287 213.191C49.2947 213.479 49.76 213.723 50.3107 213.761C50.868 213.8 51.4702 213.625 52.0967 213.15C52.2438 213.039 52.2724 212.829 52.1609 212.682C52.0497 212.535 51.8402 212.506 51.6933 212.618C51.1737 213.012 50.7277 213.12 50.3572 213.095C49.9802 213.068 49.6385 212.9 49.3408 212.666C49.0426 212.432 48.8037 212.145 48.6375 211.91C48.5549 211.794 48.4922 211.693 48.4503 211.623C48.4294 211.587 48.4141 211.56 48.4041 211.541C48.3991 211.532 48.3955 211.526 48.3933 211.522L48.391 211.517C48.391 211.517 48.391 211.517 48.3908 211.517L47.9417 211.372ZM47.9417 211.372C48.1059 211.288 48.3069 211.353 48.3908 211.517L47.9417 211.372Z" fill="#250048"/>
<path d="M82.843 140.031C84.9173 139.496 86.1181 137.327 85.4715 135.279L81.9669 124.167C81.3678 122.271 79.3973 121.174 77.4741 121.67C75.4 122.206 74.1992 124.375 74.8458 126.423L78.3504 137.535C78.9465 139.431 80.92 140.528 82.843 140.031Z" fill="#F9386A"/>
<path d="M77.2699 134.199L76.3015 131.13L78.5885 129.792C78.9326 129.59 79.347 129.893 79.2629 130.283C79.0586 131.225 78.5463 132.732 77.2699 134.199Z" fill="#250048"/>
<path d="M83.0305 126.529L77.6002 131.41C76.1024 132.757 73.8744 133.018 72.1723 131.938C71.0219 131.209 70.2047 130.078 70.2747 128.678L70.5377 121.99C70.7393 117.975 74.1515 114.884 78.1599 115.086L85.1747 115.448C85.1777 115.445 89.799 118.918 83.0305 126.529Z" fill="#F9386A"/>
<path d="M70.2778 128.044L72.1647 126.027H70.3368L70.2778 128.044Z" fill="#250048"/>
<path d="M71.7164 123.929L69.7962 124.094C69.1887 124.148 68.7241 124.655 68.7241 125.264C68.7241 125.912 69.2502 126.439 69.8968 126.439H71.8926C72.7466 126.439 73.3148 125.556 72.9592 124.776L72.8836 124.61C72.6793 124.159 72.2119 123.887 71.7164 123.929Z" fill="#F9386A"/>
<path fill-rule="evenodd" clip-rule="evenodd" d="M73.9645 122.544C74.1304 122.872 74.53 123.004 74.8591 122.84C75.1889 122.675 75.3225 122.274 75.1576 121.944L74.5604 122.242C75.1576 121.944 75.1576 121.943 75.1573 121.943L75.1571 121.943L75.1566 121.941L75.1551 121.939L75.1513 121.931C75.1483 121.925 75.1443 121.918 75.1395 121.909C75.13 121.89 75.1166 121.866 75.0998 121.837C75.0662 121.778 75.0178 121.697 74.9545 121.602C74.8287 121.414 74.64 121.161 74.3865 120.908C73.8832 120.404 73.0774 119.849 71.9768 119.849C71.608 119.849 71.3093 120.148 71.3093 120.517C71.3093 120.886 71.608 121.185 71.9768 121.185C72.5978 121.185 73.0837 121.493 73.4419 121.852C73.6191 122.029 73.7537 122.208 73.8433 122.343C73.8877 122.41 73.9201 122.464 73.9404 122.499C73.9505 122.517 73.9575 122.53 73.9613 122.537L73.9645 122.544Z" fill="#250048"/>
<path fill-rule="evenodd" clip-rule="evenodd" d="M76.7353 127.487C76.6474 127.515 76.599 127.608 76.6268 127.696C76.6268 127.696 76.6266 127.696 76.6268 127.696L76.786 127.646C76.6268 127.696 76.6268 127.696 76.6268 127.696L76.6276 127.699C76.6283 127.701 76.6293 127.705 76.6309 127.71C76.6339 127.721 76.6384 127.737 76.6437 127.758C76.6539 127.801 76.6678 127.862 76.6795 127.938C76.7034 128.091 76.7197 128.295 76.6921 128.509C76.6645 128.722 76.5942 128.939 76.4499 129.124C76.3071 129.308 76.0832 129.472 75.7287 129.569C75.3763 129.665 75.1022 129.632 74.8871 129.538C74.669 129.444 74.4978 129.281 74.365 129.098C74.232 128.915 74.1418 128.718 74.0849 128.564C74.0565 128.488 74.0369 128.424 74.0244 128.379C74.0181 128.356 74.0136 128.339 74.0108 128.328C74.0093 128.322 74.0083 128.318 74.0078 128.315L74.0073 128.312L76.7353 127.487ZM74.0073 128.312C74.0073 128.312 74.0071 128.312 74.0071 128.312C73.9877 128.222 73.8991 128.164 73.809 128.184C73.7189 128.203 73.6614 128.292 73.6807 128.382L73.8439 128.347C73.6807 128.382 73.6807 128.382 73.6807 128.382L73.681 128.383L73.6812 128.384L73.6825 128.389C73.6833 128.394 73.6848 128.399 73.6865 128.407C73.6903 128.422 73.6956 128.443 73.7028 128.469C73.7174 128.521 73.74 128.594 73.7719 128.68C73.8356 128.852 73.9385 129.079 74.0949 129.294C74.2513 129.51 74.4659 129.72 74.7541 129.845C75.045 129.971 75.3976 130.005 75.8166 129.891C76.2333 129.778 76.5217 129.576 76.7134 129.329C76.9037 129.085 76.9901 128.807 77.0232 128.552C77.0561 128.297 77.0365 128.059 77.0094 127.886C76.9958 127.8 76.98 127.728 76.9677 127.678C76.9614 127.653 76.9559 127.633 76.9519 127.619C76.9499 127.612 76.9484 127.606 76.9471 127.602L76.9456 127.597L76.9451 127.596V127.595C76.9451 127.595 76.9449 127.595 76.7867 127.646L76.9449 127.595C76.917 127.507 76.8231 127.459 76.7353 127.487" fill="#250048"/>
<path d="M80.4386 122.557H80.0942C79.5234 122.557 79.0613 122.114 79.0613 121.564V120.663C79.0613 120.155 78.6331 119.746 78.107 119.746H77.6283C77.1832 119.746 76.8248 119.401 76.8248 118.971V118.733C76.8248 118.287 76.4498 117.925 75.9852 117.925H71.8395C71.1733 117.925 70.6301 117.406 70.6301 116.764V114.747C70.6301 114.402 70.9213 114.121 71.2797 114.121H82.3561C85.2281 114.121 87.5374 116.427 87.3918 119.185C87.3022 120.868 86.6837 122.697 84.9088 124.212C80.2652 128.182 80.4386 122.557 80.4386 122.557Z" fill="#250048"/>
<path d="M82.3897 126.498C80.9705 126.498 79.8201 125.345 79.8201 123.923C79.8201 122.501 80.9705 121.348 82.3897 121.348C83.8089 121.348 84.9593 122.501 84.9593 123.923C84.9593 125.345 83.8089 126.498 82.3897 126.498Z" fill="#F9386A"/>
<path fill-rule="evenodd" clip-rule="evenodd" d="M83.019 122.836C83.2653 123.005 83.5037 123.293 83.693 123.766C83.7274 123.852 83.8245 123.894 83.9101 123.859C83.9957 123.825 84.0371 123.728 84.003 123.642C83.7949 123.122 83.5203 122.775 83.208 122.56C82.8955 122.345 82.5582 122.271 82.2399 122.276C81.6131 122.286 81.0491 122.602 80.8309 122.766C80.788 122.798 80.7634 122.848 80.7642 122.902C80.7652 122.956 80.7918 123.005 80.8357 123.036L81.959 123.821L81.2471 124.062C81.1598 124.092 81.1131 124.187 81.1427 124.274C81.1723 124.361 81.267 124.408 81.3543 124.378L82.3789 124.031C82.4384 124.011 82.4816 123.958 82.4904 123.896C82.4992 123.834 82.4723 123.772 82.4206 123.736L81.2313 122.905C81.4743 122.77 81.8501 122.616 82.2451 122.61C82.5067 122.606 82.773 122.666 83.019 122.836Z" fill="#250048"/>
<path fill-rule="evenodd" clip-rule="evenodd" d="M83.4801 117.812L77.3997 119.958C77.2257 120.02 77.1346 120.21 77.1958 120.384C77.2571 120.558 77.4478 120.649 77.6218 120.588L82.1445 118.992L80.9728 121.337L86.0673 119.376C86.2395 119.309 86.3253 119.116 86.259 118.944C86.1928 118.772 85.9995 118.686 85.8276 118.752L82.3395 120.095L83.4801 117.812Z" fill="#F9386A"/>
<path d="M72.2541 124.24C72.0036 124.24 71.8008 124.037 71.8008 123.786C71.8008 123.535 72.0036 123.331 72.2541 123.331C72.5046 123.331 72.7077 123.535 72.7077 123.786C72.7077 124.037 72.5046 124.24 72.2541 124.24Z" fill="#250048"/>
<path fill-rule="evenodd" clip-rule="evenodd" d="M71.8071 123.319C71.8005 123.411 71.8696 123.491 71.9614 123.498L72.9999 123.573C73.092 123.58 73.1718 123.511 73.1786 123.419C73.1854 123.327 73.1161 123.247 73.0242 123.24L71.9858 123.164C71.8939 123.158 71.8138 123.227 71.8071 123.319Z" fill="#250048"/>
<path fill-rule="evenodd" clip-rule="evenodd" d="M101.88 157.374C101.88 157.097 101.656 156.873 101.38 156.873H69.9668C69.6902 156.873 69.4661 157.097 69.4661 157.374C69.4661 157.65 69.6902 157.875 69.9668 157.875H101.38C101.656 157.875 101.88 157.65 101.88 157.374Z" fill="white"/>
<path d="M59.3967 178.945L85.2307 192.27C85.2307 192.27 90.3029 187.813 98.8154 176.445C104.579 168.747 101.852 159.781 101.852 159.781L70.3137 160.093C70.3137 160.093 72.0436 163.007 67.1562 169.042" fill="#250048"/>
<path fill-rule="evenodd" clip-rule="evenodd" d="M46.7104 248.143C46.5934 248.286 46.6145 248.496 46.7571 248.613C47.1913 248.969 47.2182 249.491 47.0839 250.016C47.0184 250.273 46.9187 250.506 46.8339 250.678C46.792 250.762 46.7543 250.831 46.7277 250.877C46.7144 250.9 46.7039 250.917 46.6971 250.928C46.6936 250.934 46.6911 250.938 46.6896 250.94L46.6883 250.942C46.5884 251.097 46.6326 251.304 46.7872 251.405C46.9421 251.505 47.1487 251.46 47.2488 251.304L46.9687 251.124C47.2488 251.304 47.2488 251.304 47.2488 251.304H47.2496L47.2508 251.302L47.2543 251.297C47.2571 251.292 47.2611 251.287 47.2659 251.277C47.2757 251.262 47.289 251.239 47.3055 251.211C47.3382 251.154 47.3829 251.074 47.4323 250.974C47.5302 250.776 47.6502 250.497 47.7308 250.182C47.8891 249.562 47.9158 248.7 47.1803 248.096C47.0377 247.98 46.8274 248 46.7104 248.143Z" fill="#250048"/>
<path fill-rule="evenodd" clip-rule="evenodd" d="M114.122 166.555C114.122 166.371 113.972 166.221 113.787 166.222C112.379 166.226 111.298 166.609 110.567 166.995C110.202 167.187 109.924 167.38 109.735 167.527C109.641 167.6 109.569 167.662 109.519 167.707C109.494 167.73 109.475 167.748 109.461 167.761C109.455 167.767 109.449 167.773 109.445 167.777L109.44 167.781L109.439 167.783L109.438 167.784L109.438 167.784C109.438 167.784 109.438 167.784 109.666 168.007L109.438 167.784C109.309 167.916 109.311 168.128 109.443 168.257C109.575 168.385 109.785 168.383 109.915 168.252C109.915 168.252 109.915 168.251 109.915 168.251L109.916 168.25C109.917 168.249 109.92 168.246 109.925 168.242C109.933 168.234 109.947 168.221 109.966 168.203C110.005 168.169 110.064 168.117 110.145 168.054C110.307 167.928 110.552 167.757 110.878 167.586C111.53 167.242 112.505 166.894 113.789 166.89C113.974 166.889 114.123 166.739 114.122 166.555Z" fill="#250048"/>
<path fill-rule="evenodd" clip-rule="evenodd" d="M72.8693 161.049C72.8693 160.772 72.6452 160.548 72.3686 160.548H70.0706C69.794 160.548 69.5698 160.772 69.5698 161.049C69.5698 161.326 69.794 161.55 70.0706 161.55H72.3686C72.6452 161.55 72.8693 161.326 72.8693 161.049Z" fill="white"/>
<path d="M50.8457 263.521C50.7282 264.797 49.6699 265.776 48.3908 265.776H27.2344C26.0755 265.776 25.6584 264.242 26.6606 263.652L30.238 261.553C31.0497 261.076 31.7214 260.415 32.2142 259.642H51.2711C51.109 260.93 50.9661 262.223 50.8457 263.521Z" fill="#250048"/>
<path fill-rule="evenodd" clip-rule="evenodd" d="M33.266 261.063C33.266 260.787 33.0419 260.563 32.7652 260.563H30.7105C30.4341 260.563 30.21 260.787 30.21 261.063C30.21 261.339 30.4341 261.565 30.7105 261.565H32.7652C33.0419 261.565 33.266 261.339 33.266 261.063Z" fill="#FFC969"/>
<path d="M51.0332 262.406L50.7925 264.493C50.7087 265.224 50.0927 265.774 49.362 265.774H46.493C46.493 265.776 46.437 262.015 51.0332 262.406Z" fill="#FFC969"/>
<path d="M33.0819 257.236C33.0959 257.133 33.11 257.02 33.1238 256.915H51.6518C51.5148 257.821 51.386 258.73 51.2711 259.642H32.2141C32.6704 258.924 32.9727 258.105 33.0819 257.236Z" fill="#FFC969"/>
<path d="M130.622 230.779C132.501 231.458 134.141 231.921 135.412 232.23C137.007 232.617 138.25 234.149 138.119 235.792L136.361 255.621C136.21 257.005 134.306 257.253 133.805 255.958L132.716 253.148C132.095 251.543 130.701 250.394 129.027 250.013C128.991 250.004 128.957 249.996 128.921 249.988L130.622 230.779Z" fill="#250048"/>
<path d="M128.918 249.985C127.835 249.735 126.777 249.466 125.741 249.18L127.485 229.522C128.582 230.008 129.635 230.423 130.623 230.779L128.918 249.985Z" fill="#FFC969"/>
<path fill-rule="evenodd" clip-rule="evenodd" d="M130.721 248.027C130.445 248.003 130.202 248.206 130.177 248.482L129.995 250.533C129.971 250.808 130.175 251.051 130.45 251.076C130.725 251.1 130.969 250.897 130.993 250.621L131.175 248.57C131.2 248.295 130.996 248.052 130.721 248.027Z" fill="#FFC969"/>
<path d="M134.374 231.963L136.392 232.426C137.529 232.687 138.299 233.747 138.195 234.912L137.946 237.728C137.946 237.728 134.105 236.665 134.374 231.963Z" fill="#FFC969"/>
<path d="M89.7458 149.289L99.3977 142.06C99.3977 142.06 126.981 157.795 124.963 195.83C124.963 195.83 123.311 207.806 121.758 204.515L121.181 198.29C121.159 198.052 120.817 198.032 120.769 198.268C120.282 200.672 119.221 205.037 117.878 204.695C116.744 204.403 116.691 200.091 116.851 197.802C116.862 197.628 116.615 197.581 116.565 197.749C115.905 199.92 114.611 203.775 113.805 203.573C112.837 203.329 113.089 198.302 113.234 196.183C113.251 195.926 112.94 195.788 112.761 195.97C112.364 196.374 111.885 196.829 111.378 196.924C110.846 197.025 110.452 197.006 110.161 196.921C109.525 196.739 109.312 195.931 109.766 195.446C110.86 194.276 111.577 192.977 112.252 191.369C112.364 191.103 112.548 190.831 112.755 190.581C113.044 190.231 113.175 189.776 113.13 189.324C112.26 180.566 108.002 164.348 89.7458 149.289Z" fill="#F9386A"/>
<path d="M92.7525 158.434L107.297 142.881L98.698 136.446C94.9863 133.674 89.7909 134.137 86.6279 137.52C83.4423 140.929 83.3386 146.197 86.3927 149.726L92.7525 158.434Z" fill="#FFC969"/>
<path d="M105.08 141.224L91.2889 156.431L89.9397 154.583L103.278 139.874L105.08 141.224Z" fill="white"/>
<path fill-rule="evenodd" clip-rule="evenodd" d="M90.3949 208.27C90.428 208.09 90.6002 207.97 90.7807 208.002C90.9624 208.034 91.0837 208.207 91.0518 208.388L90.723 208.331C91.0518 208.388 91.0518 208.389 91.0518 208.389L91.0515 208.39L91.0513 208.391L91.0508 208.394L91.049 208.403C91.0478 208.409 91.046 208.418 91.0435 208.428C91.0387 208.448 91.032 208.475 91.0219 208.508C91.0023 208.573 90.971 208.662 90.922 208.765C90.8241 208.971 90.6559 209.234 90.3726 209.478C89.795 209.973 88.8037 210.332 87.1355 210.069C86.9535 210.04 86.8291 209.869 86.8579 209.687C86.8865 209.505 87.0575 209.38 87.2397 209.409C88.7709 209.651 89.5472 209.306 89.9378 208.971C90.1381 208.799 90.2538 208.616 90.3191 208.478C90.3517 208.41 90.3715 208.353 90.3826 208.316C90.3881 208.297 90.3916 208.284 90.3934 208.276C90.3941 208.273 90.3946 208.271 90.3949 208.27Z" fill="#250048"/>
<path d="M94.6171 166.525C96.2489 161.136 95.1068 157.839 95.0958 157.806L96.1483 157.419L96.4897 157.29L97.2791 157.281C97.559 158.229 98.3567 161.717 96.8285 166.943C94.6367 174.433 88.8507 181.974 79.6245 189.375L77.4382 188.247C88.9066 179.247 93.1166 171.485 94.6171 166.525Z" fill="white"/>
<path d="M197.589 105.981L205.824 112.629C205.763 112.708 205.703 112.786 205.641 112.865C202.065 117.325 195.543 118.015 191.073 114.406C186.604 110.798 185.88 104.258 189.456 99.7988C192.992 95.3891 199.411 94.6661 203.875 98.1399L197.589 105.981Z" fill="#45D1F0"/>
<path d="M127.263 112.303C126.968 112.036 126.579 111.898 126.185 111.914C125.468 111.948 124.421 112.095 124.496 112.686C124.585 113.414 126.124 113.506 126.693 113.517C126.879 113.52 127.06 113.556 127.232 113.625C127.671 113.803 128.463 114.245 129.049 115.245C129.477 115.975 129.649 115.8 129.719 115.445C129.813 114.945 129.619 114.434 129.241 114.095L127.263 112.303Z" fill="#250048"/>
<path d="M127.191 111.156C126.974 110.822 126.635 110.589 126.246 110.506C125.543 110.356 124.496 110.233 124.415 110.825C124.318 111.55 125.782 112.031 126.329 112.183C126.507 112.234 126.674 112.314 126.824 112.425C127.205 112.708 127.857 113.336 128.171 114.453C128.399 115.267 128.613 115.142 128.769 114.814C128.985 114.356 128.927 113.811 128.649 113.386L127.191 111.156Z" fill="#CD406C"/>
<path d="M169.95 127.539L170.306 135.52H152.112C152.112 135.52 151.373 121.847 158.113 121.092C158.957 120.997 159.752 120.608 160.271 119.942C160.63 119.483 160.93 118.842 161.03 117.947C161.122 117.131 161.41 116.344 161.919 115.692C162.658 114.742 163.977 113.661 166.255 113.355C166.255 113.355 173.806 112.308 174.478 118.758C174.478 118.758 175.731 125.842 169.95 127.539Z" fill="#250048"/>
<path d="M128.413 118.95C127.952 117.75 127.066 116.881 126.032 116.597C124.888 116.283 124.888 115.65 124.888 115.65C124.824 114.828 126.224 114.511 126.938 114.4C127.471 114.32 127.849 113.822 127.777 113.289C127.71 112.803 127.346 112.153 126.313 111.333C124.552 109.936 124.268 109.319 124.524 108.958C124.668 108.755 124.899 108.683 125.115 108.744C131.163 110.442 134.477 119.875 134.477 119.875C139.536 132.645 141.045 134.32 141.045 134.32L133.739 136.22L128.413 118.95Z" fill="#F9386A"/>
<path d="M170.328 136.4C169.419 133.753 166.6 132.289 163.908 133.058C156.31 135.228 141.742 137.156 137.322 122.017L125.91 122.2C125.91 122.2 131.474 154.737 167.019 143.086C169.789 142.178 171.275 139.161 170.328 136.4Z" fill="#250048"/>
<path d="M163.683 140.898H177.567V152.509H163.683V140.898Z" fill="#F9386A"/>
<path d="M182.17 145.745H161.146C160.193 145.745 159.457 144.912 159.574 143.967L160.282 138.203C160.777 134.178 164.197 131.153 168.255 131.153H174.323C178.151 131.153 181.448 133.856 182.198 137.609L183.501 144.12C183.668 144.964 183.026 145.745 182.17 145.745Z" fill="#FFC969"/>
<path d="M205.97 247.186L211.36 264.25H193.652C192.672 264.25 192.286 263.059 193.1 262.547C196.35 260.498 202.084 265.159 196.694 247.186H205.97Z" fill="#F9386A"/>
<path d="M211.36 264.25H193.652C192.672 264.25 192.286 263.059 193.1 262.547C195.169 261.241 198.242 262.655 198.814 259.222H209.77L211.36 264.25Z" fill="#250048"/>
<path d="M209.884 259.581H198.741C198.839 259.182 198.894 258.708 198.905 258.145H209.429L209.884 259.581Z" fill="white"/>
<path d="M193.017 265.149H211.198C211.685 265.149 212.079 264.754 212.079 264.27V264.23C212.079 263.745 211.685 263.351 211.198 263.351H193.017C192.53 263.351 192.136 263.745 192.136 264.23V264.27C192.136 264.754 192.53 265.149 193.017 265.149Z" fill="#45D1F0"/>
<path d="M129.619 247.725V264.79H111.912C110.931 264.79 110.545 263.597 111.359 263.087C114.609 261.035 120.343 265.696 120.343 247.725H129.619Z" fill="#F9386A"/>
<path d="M161.058 157.19C161.058 157.19 173.992 212.338 190.341 252.216H227.528C227.528 252.216 196.989 202.279 180.196 159.051L161.058 157.19Z" fill="#250048"/>
<path d="M168.194 184.807L187.763 177.059L182.584 165.023L164.672 171.64L168.194 184.807Z" fill="#250048"/>
<path d="M178.62 152.317C178.62 152.317 194.019 166.34 168.783 178.746C136.628 194.554 141.284 235.749 141.117 254.371H106.806C106.806 254.371 110.22 183.418 142.556 169.584C142.556 169.584 163.122 161.27 162.497 151.442L178.62 152.317Z" fill="#250048"/>
<path d="M163.627 153.97H177.762C179.056 153.97 180.106 152.92 180.106 151.626V151.526C180.106 150.231 179.056 149.181 177.762 149.181H163.627C162.332 149.181 161.282 150.231 161.282 151.526V151.626C161.282 152.92 162.332 153.97 163.627 153.97Z" fill="#250048"/>
<path fill-rule="evenodd" clip-rule="evenodd" d="M179.799 153.206C179.799 153.022 179.649 152.872 179.465 152.872H176.148C175.964 152.872 175.814 153.022 175.814 153.206C175.814 153.391 175.964 153.54 176.148 153.54H179.465C179.649 153.54 179.799 153.391 179.799 153.206Z" fill="white"/>
<path fill-rule="evenodd" clip-rule="evenodd" d="M165.786 153.206C165.786 153.022 165.637 152.872 165.452 152.872H162.135C161.951 152.872 161.802 153.022 161.802 153.206C161.802 153.391 161.951 153.54 162.135 153.54H165.452C165.637 153.54 165.786 153.391 165.786 153.206Z" fill="white"/>
<path d="M129.619 264.79H111.912C110.931 264.79 110.545 263.597 111.359 263.087C113.429 261.781 116.501 263.195 118.465 259.762H129.619V264.79Z" fill="#250048"/>
<path d="M129.618 260.119H118.242C118.506 259.722 118.751 259.247 118.976 258.682H129.618V260.119Z" fill="white"/>
<path d="M111.278 265.689H129.46C129.947 265.689 130.341 265.294 130.341 264.807V264.77C130.341 264.282 129.947 263.888 129.46 263.888H111.278C110.792 263.888 110.397 264.282 110.397 264.77V264.807C110.397 265.294 110.792 265.689 111.278 265.689Z" fill="#45D1F0"/>
<path d="M170.897 155.245C171.392 155.978 171.661 156.804 171.72 157.684C171.75 158.145 171.031 158.145 171 157.684C170.95 156.926 170.7 156.237 170.275 155.609C170.017 155.223 170.639 154.865 170.897 155.245Z" fill="white"/>
<path d="M159.793 161.217C160.396 161.331 160.968 161.514 161.535 161.753C161.96 161.934 161.593 162.551 161.171 162.373C160.666 162.159 160.141 162.012 159.602 161.909C159.149 161.823 159.34 161.131 159.793 161.217Z" fill="white"/>
<path d="M146.906 176.24C146.973 176.173 147.043 176.104 147.109 176.037C147.243 175.904 147.487 175.895 147.618 176.037C147.748 176.181 147.759 176.404 147.618 176.545C147.551 176.612 147.481 176.681 147.415 176.748C147.281 176.881 147.037 176.89 146.906 176.748C146.776 176.606 146.765 176.384 146.906 176.24Z" fill="white"/>
<path d="M164.655 171.235C164.794 171.096 165.025 171.096 165.164 171.235L165.769 171.84C165.905 171.976 165.905 172.212 165.769 172.348C165.63 172.487 165.4 172.487 165.261 172.348C165.058 172.146 164.855 171.943 164.655 171.743C164.519 171.607 164.519 171.373 164.655 171.235Z" fill="white"/>
<path d="M193.747 199.91C194.202 200.418 194.513 201.018 194.647 201.688C194.736 202.141 194.044 202.332 193.955 201.879C193.847 201.33 193.616 200.838 193.241 200.418C192.933 200.074 193.438 199.565 193.747 199.91Z" fill="white"/>
<path d="M196.577 218.527C197.194 219.324 197.561 220.208 197.691 221.208C197.75 221.666 197.03 221.66 196.972 221.208C196.869 220.416 196.558 219.666 196.069 219.035C195.788 218.671 196.294 218.16 196.577 218.527Z" fill="white"/>
<path d="M199.556 229.502C200.017 229.502 200.019 230.221 199.556 230.221C199.094 230.221 199.094 229.502 199.556 229.502Z" fill="white"/>
<path d="M180.542 194.748H181.756C182.217 194.748 182.22 195.468 181.756 195.468H180.542C180.081 195.468 180.081 194.748 180.542 194.748Z" fill="white"/>
<path d="M187.316 212.099H187.519C187.708 212.099 187.885 212.263 187.877 212.457C187.869 212.652 187.719 212.816 187.519 212.816H187.316C187.127 212.816 186.949 212.652 186.957 212.457C186.966 212.266 187.116 212.099 187.316 212.099Z" fill="white"/>
<path d="M185.963 197.31C186.513 197.31 186.513 197.954 185.963 197.954C185.41 197.954 185.41 197.31 185.963 197.31Z" fill="white"/>
<path d="M181.354 204.663C181.815 204.663 181.818 205.383 181.354 205.383C180.89 205.38 180.89 204.663 181.354 204.663Z" fill="white"/>
<path d="M212.915 241.482C213.11 241.491 213.274 241.641 213.274 241.841V242.044C213.274 242.233 213.11 242.41 212.915 242.402C212.721 242.394 212.557 242.244 212.557 242.044V241.841C212.557 241.652 212.721 241.471 212.915 241.482Z" fill="white"/>
<path d="M202.37 243.491C202.711 243.805 203.17 243.944 203.628 243.858C204.081 243.769 204.273 244.463 203.82 244.549C203.1 244.688 202.403 244.497 201.864 244C201.522 243.683 202.031 243.177 202.37 243.491Z" fill="white"/>
<path d="M204.928 219.038C205.123 218.985 205.309 219.104 205.37 219.288C205.437 219.491 205.506 219.693 205.573 219.893C205.634 220.077 205.501 220.285 205.323 220.335C205.128 220.388 204.942 220.268 204.881 220.085C204.814 219.882 204.745 219.679 204.678 219.479C204.617 219.296 204.748 219.088 204.928 219.038Z" fill="white"/>
<path d="M187.732 184.646C188.138 184.51 188.541 184.376 188.946 184.24C189.385 184.093 189.574 184.787 189.138 184.932C188.732 185.068 188.33 185.201 187.924 185.337C187.482 185.484 187.293 184.79 187.732 184.646Z" fill="white"/>
<path d="M140.526 186.04C141.267 185.973 142.009 185.904 142.751 185.837C143.212 185.796 143.209 186.515 142.751 186.557C142.009 186.623 141.267 186.693 140.526 186.76C140.067 186.801 140.07 186.082 140.526 186.04Z" fill="white"/>
<path d="M128.493 184.534C128.966 183.929 129.438 183.321 129.91 182.715C130.193 182.351 130.699 182.862 130.419 183.223C129.946 183.829 129.474 184.437 129.002 185.043C128.718 185.409 128.213 184.896 128.493 184.534Z" fill="white"/>
<path d="M136.805 199.66C137.017 200.421 137.083 201.199 136.997 201.985C136.947 202.441 136.228 202.446 136.278 201.985C136.358 201.26 136.305 200.554 136.114 199.851C135.989 199.404 136.68 199.215 136.805 199.66Z" fill="white"/>
<path d="M129.066 229.255C129.132 228.985 129.202 228.716 129.268 228.446C129.38 227.999 130.074 228.188 129.96 228.638C129.894 228.907 129.824 229.177 129.757 229.446C129.646 229.893 128.952 229.705 129.066 229.255Z" fill="white"/>
<path d="M122.216 203.713C122.282 203.982 122.352 204.252 122.418 204.521C122.529 204.971 121.838 205.16 121.727 204.713C121.66 204.443 121.59 204.174 121.524 203.904C121.413 203.454 122.104 203.263 122.216 203.713Z" fill="white"/>
<path d="M135.317 216.777C135.406 216.624 135.653 216.529 135.808 216.649C136.078 216.852 136.348 217.054 136.617 217.254C136.772 217.371 136.853 217.565 136.745 217.746C136.656 217.899 136.409 217.993 136.253 217.874C135.984 217.671 135.714 217.468 135.445 217.268C135.292 217.152 135.211 216.957 135.317 216.777Z" fill="white"/>
<path d="M134.008 247.55C134.47 247.55 134.472 248.269 134.008 248.269C133.547 248.269 133.547 247.55 134.008 247.55Z" fill="white"/>
<path d="M119.109 234.566C119.179 234.433 119.246 234.297 119.315 234.163C119.401 233.996 119.651 233.933 119.807 234.035C119.979 234.146 120.026 234.347 119.935 234.527C119.865 234.66 119.798 234.797 119.729 234.93C119.643 235.096 119.393 235.16 119.237 235.058C119.068 234.949 119.018 234.747 119.109 234.566Z" fill="white"/>
<path d="M136.841 238.649H137.65C138.111 238.649 138.114 239.369 137.65 239.369H136.841C136.38 239.369 136.377 238.649 136.841 238.649Z" fill="white"/>
<path d="M114.892 246.202C115.703 246.211 116.448 245.999 117.134 245.569C117.526 245.322 117.887 245.944 117.498 246.188C116.712 246.683 115.823 246.933 114.892 246.922C114.431 246.916 114.428 246.197 114.892 246.202Z" fill="white"/>
<path d="M115.742 220.907C115.879 221.446 116.012 221.985 116.148 222.527C116.259 222.977 115.567 223.166 115.456 222.719C115.32 222.18 115.187 221.641 115.051 221.099C114.937 220.649 115.629 220.457 115.742 220.907Z" fill="white"/>
<path d="M157.332 170.428H157.535C157.724 170.428 157.902 170.592 157.893 170.787C157.885 170.981 157.735 171.145 157.535 171.145H157.332C157.143 171.145 156.965 170.981 156.974 170.787C156.982 170.592 157.132 170.428 157.332 170.428Z" fill="white"/>
<path d="M141.901 173.909C142.362 173.909 142.365 174.629 141.901 174.629C141.437 174.629 141.437 173.909 141.901 173.909Z" fill="white"/>
<path d="M175.037 166.434C175.204 166.387 175.454 166.493 175.478 166.684C175.542 167.157 175.609 167.629 175.673 168.101C175.701 168.296 175.626 168.484 175.423 168.543C175.256 168.59 175.006 168.484 174.981 168.293C174.917 167.82 174.851 167.348 174.787 166.876C174.759 166.682 174.834 166.493 175.037 166.434Z" fill="white"/>
<path d="M173.367 187.479C173.561 187.426 173.748 187.546 173.809 187.729C173.875 187.932 173.945 188.135 174.011 188.334C174.073 188.518 173.939 188.726 173.761 188.776C173.567 188.829 173.381 188.71 173.32 188.526C173.253 188.323 173.184 188.121 173.117 187.921C173.053 187.734 173.186 187.526 173.367 187.479Z" fill="white"/>
<path d="M182.921 223.177C183.065 223.046 183.287 223.035 183.429 223.177L183.632 223.38C183.765 223.513 183.773 223.758 183.632 223.888C183.488 224.019 183.265 224.03 183.124 223.888L182.921 223.685C182.787 223.552 182.776 223.308 182.921 223.177Z" fill="white"/>
<path d="M190.863 241.683C191.324 241.683 191.327 242.402 190.863 242.402C190.399 242.402 190.399 241.683 190.863 241.683Z" fill="white"/>
<path d="M223.232 248.763C223.427 248.763 223.591 248.927 223.591 249.122V249.727C223.591 249.922 223.427 250.086 223.232 250.086C223.038 250.086 222.874 249.922 222.874 249.727V249.122C222.874 248.93 223.038 248.763 223.232 248.763Z" fill="white"/>
<path d="M166.68 162.729C166.874 162.737 167.038 162.887 167.038 163.087V163.493C167.038 163.681 166.874 163.859 166.68 163.851C166.486 163.842 166.322 163.692 166.322 163.493V163.087C166.322 162.898 166.488 162.72 166.68 162.729Z" fill="white"/>
<path d="M152.779 182.604C152.915 181.998 153.048 181.39 153.184 180.784C153.284 180.334 153.979 180.523 153.876 180.976C153.74 181.582 153.607 182.19 153.47 182.795C153.37 183.245 152.676 183.054 152.779 182.604Z" fill="white"/>
<path d="M128.749 192.726C129.21 192.726 129.213 193.446 128.749 193.446C128.285 193.443 128.285 192.726 128.749 192.726Z" fill="white"/>
<path d="M146.757 195.557C147.218 195.557 147.22 196.277 146.757 196.277C146.292 196.277 146.292 195.557 146.757 195.557Z" fill="white"/>
<path d="M127.332 212.552H127.738C127.927 212.552 128.105 212.715 128.096 212.91C128.088 213.104 127.938 213.268 127.738 213.268H127.332C127.143 213.268 126.966 213.104 126.974 212.91C126.982 212.715 127.132 212.552 127.332 212.552Z" fill="white"/>
<path d="M125.471 244.633C125.605 244.497 125.741 244.364 125.874 244.228C126.007 244.094 126.252 244.086 126.383 244.228C126.516 244.372 126.524 244.594 126.383 244.736C126.249 244.872 126.113 245.005 125.98 245.142C125.846 245.275 125.602 245.283 125.471 245.142C125.341 244.997 125.329 244.775 125.471 244.633Z" fill="white"/>
<path d="M200.07 173.376C200.07 173.376 196.75 181.993 196.728 186.01C196.714 188.612 197.855 186.549 198.661 184.774C198.758 184.56 199.081 184.66 199.039 184.89C198.8 186.229 198.594 187.818 198.881 188.171C199.214 188.582 200.109 186.526 200.697 185.035C200.781 184.821 201.1 184.896 201.083 185.124C200.97 186.532 200.908 188.446 201.37 188.754C202.117 189.254 206.89 174.265 206.89 174.265L200.07 173.376Z" fill="#F9386A"/>
<path d="M172.028 136.706C171.223 139.959 173.154 143.287 176.418 144.287C185.63 147.112 201.828 154.77 196.425 172.876L208.246 180.207C208.246 180.207 223.891 143.892 179.81 132.175C176.371 131.262 172.87 133.312 172.028 136.706Z" fill="#250048"/>
<path d="M170.353 133.984L170.434 133.967C171.462 133.75 172.117 132.742 171.903 131.717L170.684 125.917C170.467 124.889 169.459 124.234 168.433 124.447L168.353 124.464C167.325 124.681 166.669 125.689 166.883 126.714L168.103 132.514C168.319 133.542 169.328 134.2 170.353 133.984Z" fill="#F9386A"/>
<path d="M167.552 129.909L167.047 127.509L168.866 126.52C168.866 126.52 169.178 128.181 167.552 129.909Z" fill="#250048"/>
<path d="M169.539 124.306C169.539 124.306 169.817 127.759 164.575 129.414C163.452 129.77 162.016 129.522 161.799 127.75V122.433C161.799 119.606 163.558 117.314 165.727 117.314H169.953L169.539 124.306Z" fill="#F9386A"/>
<path d="M163.861 123.147C163.657 123.147 163.491 122.982 163.491 122.778C163.491 122.574 163.657 122.408 163.861 122.408C164.065 122.408 164.23 122.574 164.23 122.778C164.23 122.982 164.065 123.147 163.861 123.147Z" fill="#250048"/>
<path fill-rule="evenodd" clip-rule="evenodd" d="M164.266 123.206L164.39 122.896C164.561 122.964 164.645 123.158 164.577 123.329C164.508 123.5 164.315 123.584 164.144 123.517" fill="#250048"/>
<path fill-rule="evenodd" clip-rule="evenodd" d="M165.622 126.293C165.539 126.255 165.439 126.291 165.401 126.375C165.158 126.9 164.764 127.099 164.428 127.17C164.257 127.206 164.101 127.21 163.987 127.204C163.931 127.201 163.885 127.196 163.855 127.191C163.839 127.189 163.828 127.187 163.82 127.186L163.813 127.185L163.812 127.184C163.812 127.184 163.812 127.184 163.812 127.184L165.622 126.293ZM163.812 127.184C163.722 127.165 163.633 127.223 163.614 127.313C163.595 127.403 163.652 127.492 163.742 127.511L163.777 127.347C163.742 127.511 163.742 127.511 163.742 127.511H163.743H163.743L163.744 127.511L163.748 127.512C163.752 127.513 163.756 127.513 163.762 127.514C163.773 127.516 163.788 127.519 163.808 127.522C163.847 127.528 163.902 127.534 163.97 127.537C164.105 127.544 164.291 127.541 164.497 127.497C164.914 127.409 165.408 127.156 165.704 126.515C165.742 126.431 165.706 126.332 165.622 126.293" fill="#250048"/>
<path d="M161.802 122.734L160.216 125.661C160.138 125.839 160.305 126.025 160.541 126.025H162.808V122.734H161.802Z" fill="#F9386A"/>
<path d="M170.164 122.642C170.164 122.642 161.499 122.106 162.374 116.397H170.306L170.164 122.642Z" fill="#250048"/>
<path d="M170.406 125.275C169.495 125.275 168.756 124.537 168.756 123.625C168.756 122.714 169.495 121.975 170.406 121.975C171.317 121.975 172.056 122.714 172.056 123.625C172.056 124.537 171.317 125.275 170.406 125.275Z" fill="#F9386A"/>
<path d="M170.675 125.125L171.728 128.008C171.881 128.425 172.375 128.608 172.756 128.38C172.762 128.378 172.767 128.375 172.77 128.372C173.153 128.141 173.225 127.614 172.923 127.283L170.856 125.014C170.775 124.927 170.634 125.014 170.675 125.125Z" fill="#FFC969"/>
<path d="M170.517 124.978L169.556 127.892C169.417 128.314 169.692 128.764 170.131 128.82C170.136 128.82 170.142 128.823 170.147 128.823C170.592 128.878 170.973 128.509 170.942 128.064L170.725 125.003C170.72 124.884 170.553 124.864 170.517 124.978Z" fill="#FFC969"/>
<path d="M170.614 125.326C170.443 125.326 170.305 125.187 170.305 125.017C170.305 124.847 170.443 124.709 170.614 124.709C170.784 124.709 170.922 124.847 170.922 125.017C170.922 125.187 170.784 125.326 170.614 125.326Z" fill="#250048"/>
<path fill-rule="evenodd" clip-rule="evenodd" d="M171.204 123.234V123.234L171.203 123.233L171.198 123.225C171.193 123.218 171.186 123.208 171.176 123.194C171.156 123.167 171.126 123.129 171.088 123.087C171.01 123 170.904 122.902 170.78 122.837C170.658 122.773 170.526 122.745 170.386 122.782C170.268 122.813 170.124 122.897 169.965 123.082L170.524 123.575C170.593 123.635 170.6 123.739 170.541 123.809L170.063 124.367C170.003 124.437 169.898 124.445 169.828 124.385C169.757 124.325 169.749 124.22 169.809 124.15L170.18 123.716L169.626 123.228C169.561 123.171 169.55 123.074 169.601 123.004C169.827 122.695 170.062 122.522 170.301 122.459C170.542 122.395 170.76 122.45 170.934 122.541C171.107 122.632 171.244 122.761 171.336 122.863C171.383 122.915 171.419 122.962 171.444 122.996C171.457 123.013 171.467 123.027 171.474 123.037C171.477 123.042 171.48 123.046 171.482 123.049L171.484 123.053L171.485 123.054L171.485 123.054V123.054C171.485 123.054 171.485 123.055 171.345 123.144L171.485 123.055C171.535 123.132 171.512 123.236 171.434 123.285C171.356 123.335 171.253 123.312 171.204 123.234Z" fill="#250048"/>
<path d="M161.797 126.025H162.805L161.797 126.986V126.025Z" fill="#250048"/>
<path fill-rule="evenodd" clip-rule="evenodd" d="M163.256 120.055C163.256 120.055 163.256 120.055 163.324 120.716L163.256 120.055C162.889 120.093 162.622 120.421 162.66 120.788C162.698 121.152 163.021 121.418 163.385 121.385C163.386 121.384 163.389 121.384 163.393 121.384C163.405 121.384 163.428 121.383 163.461 121.384C163.526 121.386 163.625 121.395 163.743 121.422C163.978 121.476 164.282 121.6 164.561 121.889C164.817 122.154 165.24 122.162 165.505 121.905C165.77 121.649 165.777 121.226 165.521 120.961C165.026 120.448 164.471 120.219 164.041 120.12C163.827 120.071 163.642 120.054 163.506 120.049C163.438 120.047 163.382 120.048 163.34 120.05C163.318 120.05 163.301 120.051 163.287 120.052C163.28 120.053 163.274 120.053 163.268 120.054L163.261 120.055L163.258 120.055H163.257L163.256 120.055Z" fill="#250048"/>
<path d="M433.192 47.8894L415.872 54.7422C413.748 55.5835 411.326 54.3723 410.869 52.1968C410.862 52.168 410.854 52.1388 410.854 52.11C410.405 49.9199 412.167 47.8821 414.476 47.8821H433.192V47.8894Z" fill="#FFC969"/>
<path d="M417.027 63.4006L417.086 63.4583C417.064 63.4439 417.041 63.4223 417.027 63.4006Z" fill="#FFC969"/>
<path d="M433.192 47.8892L425.955 64.5757C425.072 66.6205 422.476 67.4184 420.566 66.1999C420.543 66.1856 420.513 66.171 420.491 66.1492C418.571 64.9091 418.33 62.2623 419.959 60.6813L433.192 47.8892Z" fill="#FFC969"/>
<path d="M433.104 69.9202H433.192C433.162 69.9129 433.132 69.9202 433.104 69.9202Z" fill="#FFC969"/>
<path d="M433.192 47.8892L440.278 64.641C441.149 66.6931 439.896 69.0356 437.647 69.4778C437.617 69.4851 437.587 69.4924 437.564 69.4924C435.3 69.9273 433.192 68.2232 433.192 65.9897V47.8892Z" fill="#FFC969"/>
<path d="M449.231 63.5238L449.291 63.4661C449.276 63.4877 449.254 63.5021 449.231 63.5238Z" fill="#FFC969"/>
<path d="M433.192 47.8892L450.446 54.8871C452.562 55.743 453.385 58.2519 452.125 60.1012C452.11 60.123 452.095 60.1446 452.073 60.1737C450.792 62.0303 448.054 62.2623 446.42 60.6885L433.192 47.8892Z" fill="#FFC969"/>
<path d="M433.192 47.8895L450.514 41.0364C452.637 40.1954 455.057 41.4063 455.516 43.5747C455.524 43.6036 455.532 43.6327 455.532 43.6616C455.981 45.8516 454.219 47.8895 451.909 47.8895H433.192Z" fill="#FFC969"/>
<path d="M449.359 32.377L449.299 32.3196C449.314 32.334 449.336 32.3556 449.359 32.377Z" fill="#FFC969"/>
<path d="M433.192 47.8893L440.428 31.2028C441.314 29.1579 443.907 28.3601 445.82 29.5783C445.843 29.5929 445.873 29.6074 445.895 29.6293C447.815 30.8693 448.054 33.5161 446.427 35.0969L433.192 47.8893Z" fill="#FFC969"/>
<path d="M433.194 47.8892L426.108 31.1376C425.237 29.0852 426.49 26.743 428.739 26.3005C428.769 26.2932 428.799 26.2862 428.829 26.2862C431.093 25.851 433.202 27.5551 433.202 29.7889V47.8892H433.194Z" fill="#FFC969"/>
<path d="M417.152 32.2544L417.092 32.3119C417.107 32.2974 417.129 32.2758 417.152 32.2544Z" fill="#FFC969"/>
<path d="M433.192 47.8895L415.94 40.8915C413.824 40.0357 413 37.5267 414.258 35.6775L414.303 35.6049C415.586 33.7483 418.324 33.5163 419.958 35.0901L433.192 47.8895Z" fill="#FFC969"/>
<path d="M94.3262 88.6171L91.4486 89.1927C91.3351 89.2156 91.2641 89.3256 91.2902 89.4383L92.2425 93.5605L92.2247 93.564C92.2508 93.6767 92.1798 93.7867 92.0663 93.8093L88.1255 94.5978C88.012 94.6204 87.9412 94.7304 87.9673 94.8432L88.5851 97.5176C88.6112 97.6301 88.7244 97.7035 88.8376 97.6806L92.7787 96.8923C92.8919 96.8695 93.0051 96.9426 93.0312 97.0553L93.9361 100.973C93.9622 101.086 94.0754 101.159 94.1889 101.136L97.0664 100.56C97.1799 100.538 97.2509 100.428 97.2248 100.315L96.2725 96.1927L96.2903 96.1892C96.2642 96.0764 96.335 95.9665 96.4485 95.9439L100.39 95.1553C100.503 95.1327 100.574 95.0227 100.548 94.91L99.93 92.2355C99.9039 92.1228 99.7907 92.0497 99.6772 92.0723L95.7364 92.8608C95.6229 92.8837 95.5097 92.8104 95.4838 92.6979L94.5787 88.7804C94.5528 88.6676 94.4396 88.5945 94.3262 88.6171Z" fill="#F9386A"/>
<path d="M359.897 125.14L379.222 131.65C379.164 131.832 379.109 132.01 379.049 132.191C375.567 142.464 364.242 147.928 353.752 144.392C343.265 140.858 337.582 129.666 341.066 119.393C344.51 109.235 355.627 103.781 366.016 107.079L359.897 125.14Z" fill="#FFC969"/>
<path d="M136.011 39.4907L130.754 53.5442C130.886 53.5977 131.015 53.6499 131.148 53.7012C138.727 56.5624 147.183 52.6997 150.036 45.0704C152.887 37.4433 149.058 28.9401 141.479 26.0788C133.984 23.2497 125.631 26.9984 122.688 34.458L136.011 39.4907Z" fill="#45D1F0"/>
<path d="M303.271 130.278C303.271 130.278 303.841 121.039 302.651 117.195C301.459 113.348 300.992 120.959 300.992 120.959C300.992 120.959 300.623 116.227 299.94 115.78C299.26 115.331 299.014 121.322 299.014 121.322C299.014 121.322 298.251 116.225 297.388 115.974C296.522 115.722 296.489 131.489 296.489 131.489L303.271 130.278Z" fill="#F9386A"/>
<path d="M307.187 128.668H292.463C292.463 128.668 291.752 150.504 303.64 154.055C315.525 157.605 333.264 160.801 338.054 140.564L328.297 133.109C328.297 133.109 320.49 145.003 311.447 140.564C309.095 139.409 307.011 137.9 307.187 128.668Z" fill="#45D1F0"/>
<path d="M299.95 150.93C299.95 150.93 288.926 136.966 285.068 134.22C282.312 132.255 284.074 135.502 285.307 137.516C285.404 137.675 285.191 137.836 285.063 137.704C283.886 136.482 282.139 134.791 281.526 134.833C280.841 134.881 282.716 137.855 283.841 139.541C283.941 139.692 283.743 139.864 283.607 139.742C282.259 138.524 279.96 136.575 279.275 136.839C278.286 137.22 294.468 156.91 294.468 156.91L299.95 150.93Z" fill="#F9386A"/>
<path d="M324.675 159.157L354.048 158.808L351.859 138.206C350.203 130.497 342.248 125.667 334.09 127.423C325.933 129.176 320.664 136.85 322.316 144.559L324.675 159.157Z" fill="#250048"/>
<path d="M325.689 162.11H354.947C355.858 162.11 356.596 161.37 356.596 160.461C356.596 159.549 355.856 158.811 354.947 158.811H325.689C324.775 158.811 324.04 159.551 324.04 160.461C324.04 161.373 324.775 162.11 325.689 162.11Z" fill="#45D1F0"/>
<path d="M333.096 131.09C334.113 130.534 334.484 129.263 333.932 128.245L330.649 122.218L326.969 124.224L330.252 130.251C330.805 131.269 332.077 131.645 333.096 131.09Z" fill="#F9386A"/>
<path d="M329.113 128.245L327.87 125.953L329.115 125.02C329.678 124.597 330.481 125.028 330.433 125.731C330.378 126.537 330.074 127.507 329.113 128.245Z" fill="#250048"/>
<path d="M323.613 119.116L323.43 126.635C323.417 127.079 323.56 127.523 323.859 127.854C324.419 128.47 325.651 128.914 328.29 127.119C332.607 124.182 332.948 123.082 332.988 121.284C333.034 119.487 333.418 115.96 329.201 115.518C324.027 114.976 323.651 117.596 323.613 119.116Z" fill="#F9386A"/>
<path d="M323.473 124.84L324.928 123.962L323.495 123.925L323.473 124.84Z" fill="#250048"/>
<path d="M323.548 121.845L320.84 123.452C320.564 123.616 320.674 124.042 320.995 124.05L325.175 124.153L323.548 121.845Z" fill="#F9386A"/>
<path fill-rule="evenodd" clip-rule="evenodd" d="M326.485 124.767C326.304 124.736 326.131 124.859 326.101 125.041C326.058 125.301 325.965 125.445 325.877 125.529C325.787 125.615 325.676 125.662 325.551 125.684C325.425 125.706 325.297 125.7 325.197 125.685C325.147 125.678 325.107 125.67 325.079 125.664C325.066 125.66 325.056 125.658 325.051 125.656L325.046 125.655V125.655C324.871 125.6 324.685 125.698 324.63 125.874C324.574 126.05 324.672 126.238 324.848 126.293L324.943 125.986C324.848 126.293 324.848 126.293 324.848 126.293L324.851 126.293V126.294L324.856 126.295C324.861 126.296 324.866 126.298 324.873 126.3C324.886 126.304 324.903 126.308 324.926 126.313C324.969 126.324 325.029 126.336 325.102 126.347C325.247 126.367 325.448 126.38 325.666 126.342C325.885 126.304 326.131 126.211 326.339 126.013C326.547 125.813 326.696 125.528 326.758 125.152C326.788 124.97 326.668 124.798 326.485 124.767ZM325.046 125.655C325.046 125.655 325.046 125.655 325.046 125.655V125.655Z" fill="#250048"/>
<path fill-rule="evenodd" clip-rule="evenodd" d="M326 120.069C326.148 120.301 326.457 120.369 326.688 120.222C326.924 120.074 326.992 119.765 326.846 119.531L326.427 119.795C326.846 119.531 326.846 119.531 326.844 119.531V119.53V119.529V119.527L326.839 119.521C326.836 119.516 326.831 119.511 326.829 119.504C326.819 119.491 326.806 119.475 326.791 119.454C326.763 119.414 326.721 119.361 326.666 119.3C326.56 119.181 326.399 119.025 326.184 118.892C325.734 118.613 325.072 118.452 324.291 118.847C324.045 118.971 323.945 119.273 324.07 119.52C324.196 119.766 324.497 119.865 324.743 119.741C325.164 119.528 325.453 119.618 325.656 119.744C325.767 119.813 325.857 119.898 325.92 119.968C325.95 120.002 325.973 120.031 325.985 120.049C325.993 120.058 325.998 120.065 326 120.068C326 120.068 326 120.069 326 120.069Z" fill="#250048"/>
<path d="M324.72 121.58C324.57 121.58 324.447 121.457 324.447 121.305C324.447 121.154 324.57 121.031 324.72 121.031C324.873 121.031 324.996 121.154 324.996 121.305C324.996 121.457 324.873 121.58 324.72 121.58Z" fill="#250048"/>
<path fill-rule="evenodd" clip-rule="evenodd" d="M355.449 162.11C355.449 161.834 355.225 161.609 354.947 161.609H351.119C350.843 161.609 350.619 161.834 350.619 162.11C350.619 162.387 350.843 162.611 351.119 162.611H354.947C355.225 162.611 355.449 162.387 355.449 162.11Z" fill="#250048"/>
<path d="M296.401 123.489H303.5C303.891 123.489 304.205 123.172 304.205 122.783V118.392C304.205 118.001 303.889 117.686 303.5 117.686H296.401C296.01 117.686 295.696 118.004 295.696 118.392V122.783C295.693 123.175 296.01 123.489 296.401 123.489Z" fill="#271049"/>
<path d="M297.006 122.678H297.35C297.676 122.678 297.942 122.413 297.942 122.086C297.942 121.758 297.676 121.493 297.35 121.493H297.006C296.68 121.493 296.414 121.758 296.414 122.086C296.411 122.41 296.68 122.678 297.006 122.678Z" fill="#FFC969"/>
<path d="M302.631 124.211V120.494C302.631 120.187 302.423 119.902 302.122 119.852C301.808 119.801 301.419 119.984 301.148 120.97C301.1 121.142 300.99 121.29 300.834 121.374C300.39 121.617 299.489 122.36 299.577 124.33C299.592 124.695 299.905 124.975 300.269 124.956L302.006 124.866C302.358 124.848 302.631 124.56 302.631 124.211Z" fill="#F9386A"/>
<path d="M323.111 110.02C324.263 110.049 325.277 110.61 325.922 111.461C326.477 111.149 327.12 110.974 327.8 110.993C329.299 111.03 330.564 111.966 331.091 113.274C331.329 113.235 331.578 113.213 331.831 113.222C333.962 113.274 335.644 115.043 335.591 117.174C335.581 117.56 335.516 117.933 335.401 118.284C335.12 119.265 334.316 121.438 332.547 122.53L332.225 121.448C331.696 121.935 330.983 122.223 330.207 122.205C328.611 122.165 327.348 120.838 327.388 119.241C327.396 118.903 327.464 118.58 327.579 118.279C326.45 118.236 325.453 117.679 324.816 116.841C324.261 117.153 323.618 117.327 322.938 117.309C320.927 117.258 319.336 115.588 319.386 113.576C319.436 111.564 321.101 109.97 323.111 110.02Z" fill="#250048"/>
<path d="M332.534 124.859C331.224 124.859 330.16 123.795 330.16 122.482C330.16 121.169 331.224 120.105 332.534 120.105C333.847 120.105 334.911 121.169 334.911 122.482C334.911 123.795 333.847 124.859 332.534 124.859Z" fill="#F9386A"/>
<path fill-rule="evenodd" clip-rule="evenodd" d="M333.009 121.923V121.923V121.924V121.925C333.009 121.925 333.009 121.925 333.009 121.925C333.101 122.084 333.302 122.139 333.463 122.048C333.624 121.957 333.679 121.753 333.588 121.593L333.297 121.758C333.588 121.593 333.588 121.593 333.588 121.593V121.592V121.592V121.59L333.586 121.587C333.583 121.584 333.581 121.581 333.578 121.577C333.573 121.569 333.568 121.558 333.558 121.546C333.543 121.52 333.521 121.486 333.49 121.447C333.43 121.369 333.34 121.265 333.217 121.163C332.973 120.958 332.594 120.752 332.087 120.782C331.573 120.812 331.234 121.067 331.033 121.347C330.845 121.608 330.77 121.9 330.767 122.063C330.762 122.222 330.855 122.33 330.898 122.375C330.95 122.429 331.013 122.471 331.066 122.503C331.174 122.569 331.307 122.629 331.425 122.676C331.435 122.681 331.447 122.685 331.457 122.689L331.108 123.143C330.995 123.289 331.023 123.498 331.169 123.611C331.314 123.724 331.525 123.697 331.638 123.55L332.564 122.348L332.1 122.207V122.207L332.092 122.205C332.087 122.203 332.077 122.2 332.065 122.197C332.042 122.189 332.01 122.178 331.969 122.165C331.887 122.137 331.781 122.099 331.676 122.057C331.593 122.024 331.52 121.991 331.462 121.96C331.462 121.959 331.462 121.958 331.462 121.958C331.485 121.889 331.523 121.811 331.575 121.737C331.676 121.597 331.841 121.466 332.128 121.449C332.419 121.431 332.637 121.546 332.788 121.674C332.865 121.739 332.923 121.805 332.961 121.854C332.978 121.879 332.994 121.899 333.001 121.911C333.004 121.917 333.006 121.921 333.009 121.923C333.009 121.924 333.009 121.924 333.009 121.924" fill="#250048"/>
<path fill-rule="evenodd" clip-rule="evenodd" d="M326.5 123.588C326.455 123.668 326.485 123.77 326.565 123.815L327.825 124.515C327.906 124.56 328.008 124.531 328.054 124.451C328.096 124.37 328.069 124.268 327.988 124.224L326.728 123.523C326.648 123.478 326.545 123.507 326.5 123.588Z" fill="#250048"/>
<path fill-rule="evenodd" clip-rule="evenodd" d="M325.157 120.108C325.759 120.108 326.246 120.597 326.246 121.2C326.246 121.803 325.759 122.291 325.157 122.291C324.555 122.291 324.065 121.803 324.065 121.2C324.065 120.597 324.555 120.108 325.157 120.108ZM326.58 121.2C326.58 120.413 325.943 119.774 325.157 119.774C324.371 119.774 323.731 120.413 323.731 121.2C323.731 121.987 324.371 122.625 325.157 122.625C325.943 122.625 326.58 121.987 326.58 121.2Z" fill="#250048"/>
<path fill-rule="evenodd" clip-rule="evenodd" d="M323.397 121.156C323.395 121.248 323.468 121.325 323.56 121.327L323.892 121.335C323.985 121.337 324.06 121.264 324.062 121.172C324.065 121.08 323.992 121.003 323.899 121.001L323.568 120.993C323.475 120.991 323.4 121.064 323.397 121.156Z" fill="#250048"/>
<path fill-rule="evenodd" clip-rule="evenodd" d="M326.246 121.225C326.246 121.317 326.319 121.394 326.409 121.396L329.715 121.478C329.808 121.48 329.883 121.407 329.886 121.315C329.888 121.223 329.816 121.146 329.723 121.144L326.42 121.062C326.327 121.06 326.249 121.132 326.246 121.225Z" fill="#250048"/>
<path d="M381.484 241.205L393.512 251.616L385.161 261.279C384.478 262.067 383.198 261.543 383.251 260.5C383.331 258.923 383.04 257.231 381.78 256.138C378.843 253.6 374.227 249.604 374.227 249.604L381.484 241.205Z" fill="#250048"/>
<path d="M388.035 246.873L380.226 254.793L378.24 253.075L386.077 245.181L388.035 246.873Z" fill="white"/>
<path d="M375.261 250.437L378.24 253.075L386.077 245.181L383.138 242.635L375.261 250.437Z" fill="#F9386A"/>
<path d="M369.92 256.874L390.442 237.261C390.442 237.261 347.735 200.028 351.804 164.685C351.804 164.685 334.055 148.585 324.622 182.263C324.622 182.263 319.446 212.424 369.92 256.874Z" fill="#250048"/>
<path fill-rule="evenodd" clip-rule="evenodd" d="M383.58 254.368C383.444 254.242 383.233 254.253 383.108 254.386L381.448 256.174C381.323 256.309 381.33 256.52 381.466 256.646C381.602 256.771 381.812 256.764 381.938 256.628L383.597 254.84C383.723 254.707 383.715 254.494 383.58 254.368Z" fill="white"/>
<path fill-rule="evenodd" clip-rule="evenodd" d="M384.662 255.737C384.526 255.611 384.315 255.619 384.19 255.754L382.53 257.54C382.405 257.676 382.413 257.886 382.548 258.012C382.684 258.138 382.894 258.13 383.02 257.994L384.679 256.209C384.805 256.073 384.797 255.862 384.662 255.737Z" fill="white"/>
<path d="M301.098 249.802V265.716H288.334C287.292 265.716 286.848 264.403 287.671 263.76C288.914 262.791 290.003 261.462 290.003 259.795C290.003 255.91 290.003 249.802 290.003 249.802H301.098Z" fill="#250048"/>
<path d="M290.003 256.334H301.103V258.828H290.003V256.334Z" fill="white"/>
<path d="M290.003 254.212H301.103V256.339H290.003V254.212Z" fill="#F9386A"/>
<path d="M354.904 160.863H325.759C325.759 160.863 283.223 189.453 279.516 254.614L311.492 254.458C311.492 254.458 314.464 211.07 335.647 196.509C354.478 183.566 356.039 174.353 354.904 160.863Z" fill="#45D1F0"/>
<path fill-rule="evenodd" clip-rule="evenodd" d="M291.876 260.978C291.876 260.792 291.725 260.644 291.542 260.644H289.812C289.629 260.644 289.479 260.792 289.479 260.978C289.479 261.161 289.629 261.312 289.812 261.312H291.542C291.725 261.312 291.876 261.161 291.876 260.978Z" fill="white"/>
<path fill-rule="evenodd" clip-rule="evenodd" d="M291.311 262.138C291.311 261.954 291.163 261.804 290.977 261.804H289.25C289.064 261.804 288.916 261.954 288.916 262.138C288.916 262.321 289.064 262.472 289.25 262.472H290.977C291.163 262.472 291.311 262.321 291.311 262.138Z" fill="white"/>
<path d="M300.997 218.221C304.087 211.155 308.204 204.654 313.359 198.915C318.714 192.956 324.836 187.727 330.034 181.623C335.559 175.138 340.17 167.366 340.592 158.658C340.614 158.197 341.335 158.195 341.312 158.658C340.559 174.258 327.853 185.038 317.714 195.349C312.082 201.077 307.2 207.277 303.555 214.467C299.945 221.587 297.478 229.24 295.804 237.031C294.559 242.81 293.748 248.663 293.171 254.541L292.455 254.544C293.683 242.099 295.964 229.737 300.997 218.221Z" fill="#250048"/>
<path d="M283.688 152.265C293.881 164.83 303.103 169.021 314.471 169.021C324.032 169.417 332.755 164.008 337.72 158.396C341.38 154.258 344.141 148.828 345.92 142.256C347.243 137.371 344.362 132.34 339.479 131.015C334.6 129.691 329.572 132.578 328.247 137.461C325.503 147.594 320.827 149.402 316.615 149.833C311.181 150.391 306.359 149.355 302.752 146.246C299.835 143.734 297.252 140.62 297.252 140.62L283.688 152.265Z" fill="#250048"/>
<path d="M319.467 164.492C323.094 163.022 324.818 165.645 325.451 167.027C322.659 168.148 319.652 168.875 316.525 169.013C316.517 167.405 317.072 165.462 319.467 164.492Z" fill="#F9386A"/>
<path d="M334.191 128.192L329.595 130.466C329.058 130.733 328.932 131.444 329.346 131.877L330.672 133.268C331.033 133.644 331.63 133.633 331.977 133.247L335.248 129.583C335.514 129.287 335.549 128.85 335.335 128.515C335.092 128.129 334.597 127.991 334.191 128.192Z" fill="#45D1F0"/>
<path fill-rule="evenodd" clip-rule="evenodd" d="M408.447 112.859L408.442 112.857C408.435 112.856 408.425 112.854 408.412 112.851C408.384 112.846 408.344 112.838 408.294 112.83C408.194 112.815 408.058 112.8 407.91 112.798C407.586 112.794 407.32 112.858 407.185 113C407.057 113.134 406.846 113.139 406.713 113.012C406.577 112.885 406.572 112.673 406.7 112.54C407.041 112.181 407.566 112.126 407.915 112.13C408.103 112.132 408.274 112.152 408.397 112.17C408.457 112.18 408.507 112.189 408.542 112.196C408.56 112.2 408.575 112.203 408.585 112.205L408.598 112.208L408.603 112.209V112.209C408.603 112.209 408.603 112.209 408.525 112.534L408.603 112.209C408.783 112.252 408.894 112.432 408.851 112.612C408.809 112.791 408.628 112.902 408.447 112.859ZM408.45 112.859C408.45 112.859 408.45 112.859 408.45 112.859V112.859Z" fill="#250048"/>
<path d="M368.117 170.371C368.117 170.371 366.654 175.131 368.117 175.499C369.583 175.867 370.68 171.286 370.68 171.286C370.68 171.286 371.78 168.905 374.523 168.173C377.269 167.442 373.79 166.342 373.79 166.342L368.117 170.371Z" fill="#250048"/>
<path d="M420.834 135.21C420.834 135.21 406.007 147.296 384.225 155.719C384.225 155.719 368.185 161.067 364.596 173.351C364.465 173.792 364.555 174.283 364.872 174.613C365.434 175.201 366.491 174.716 369.033 171.284C372.693 166.339 374.159 169.637 374.159 169.637C374.159 169.637 374.159 174.947 375.989 174.947C375.989 174.947 377.038 175.052 377.703 172.728C378.308 170.628 379.859 168.932 381.905 168.168C388.622 165.662 403.761 160.65 421.725 158.791L420.834 135.21Z" fill="#00B0D6"/>
<path d="M428.006 120.369C418.477 120.369 410.754 128.096 410.754 137.627V144.741H445.255V137.627C445.255 128.096 437.532 120.369 428.006 120.369Z" fill="#250048"/>
<path d="M415.26 144.568H441.488V152.325H415.26V144.568Z" fill="#45D1F0"/>
<path d="M415.275 144.313H441.45V147.61H415.275V144.313Z" fill="#250048"/>
<path d="M386.536 248.328V264.405C386.536 265.134 385.946 265.726 385.216 265.726H382.392L381.594 263.712L380.131 265.726H368.757C367.979 265.726 367.568 264.78 368.122 264.235C368.567 263.798 369.322 263.398 370.612 263.348C375.188 263.165 376.468 261.332 376.654 249.981L386.536 248.328Z" fill="#250048"/>
<path d="M386.536 256.611H376.3C376.501 254.873 376.609 252.701 376.654 249.979L384.232 248.713H386.536V256.611Z" fill="#45D1F0"/>
<path d="M461.097 228.082L480.796 249.542C481.295 250.076 481.268 250.91 480.738 251.412L478.677 253.344L476.719 252.419L477.028 254.89L468.727 262.67C468.16 263.203 467.211 262.791 467.246 262.012C467.274 261.392 467.55 260.581 468.456 259.664C471.672 256.4 471.812 254.318 453.536 234.184L461.097 228.082Z" fill="#250048"/>
<path d="M471.486 239.401L463.449 245.495L458.81 240.103L468.087 235.462L471.486 239.401Z" fill="#45D1F0"/>
<path d="M409.569 160.468C409.569 160.468 416.643 202.721 452.048 248.044L478.612 229.071C478.612 229.071 441.548 183.066 443.425 157.643L409.569 160.468Z" fill="#250048"/>
<path d="M446.942 152.005H411.763C411.763 152.005 360.421 186.507 358.431 253.273L397.026 253.082C397.026 253.082 398.123 212.591 423.694 195.019C446.428 179.403 448.31 168.285 446.942 152.005Z" fill="#F9386A"/>
<path d="M387.013 229.911C389.631 221.737 393.06 214.347 397.204 207.942C402.403 199.909 408.748 193.412 416.06 188.639C427.976 180.858 433.36 171.056 435.782 164.201C437.77 158.572 438.142 153.95 438.202 152.002H440.376C440.32 154.066 439.946 158.87 437.858 164.825C435.335 172.023 429.708 182.313 417.245 190.451C410.197 195.054 404.072 201.326 399.042 209.091C395.003 215.327 391.655 222.536 389.097 230.515C385.914 240.425 384.747 249.1 384.348 253.143L382.169 253.153C382.561 249.103 383.735 240.146 387.013 229.911Z" fill="white"/>
<path d="M409.875 154.018H447.216C448.378 154.018 449.319 153.075 449.319 151.913C449.319 150.751 448.378 149.808 447.216 149.808H409.875C408.713 149.808 407.772 150.751 407.772 151.913C407.772 153.075 408.713 154.018 409.875 154.018Z" fill="#250048"/>
<path d="M410.694 121.602L413.04 121.759C413.545 121.794 413.984 121.412 414.014 120.906C414.052 120.402 413.668 119.963 413.163 119.93L410.814 119.773C410.312 119.738 409.873 120.12 409.84 120.627C409.805 121.131 410.187 121.567 410.694 121.602Z" fill="#45D1F0"/>
<path d="M420.34 127.519C421.793 126.476 422.072 124.425 420.952 123.03L414.868 115.457C413.831 114.165 411.964 113.91 410.616 114.878C409.165 115.921 408.886 117.972 410.006 119.367L416.09 126.939C417.13 128.231 418.995 128.486 420.34 127.519Z" fill="#45D1F0"/>
<path d="M417.39 119.08L410.992 123.569C409.18 124.842 406.695 123.469 406.805 121.255L407.144 114.555C407.305 111.38 410.008 108.936 413.181 109.096L419.652 109.424C419.652 109.427 424.813 112.705 417.39 119.08Z" fill="#45D1F0"/>
<path d="M411.085 115.97C410.839 115.97 410.641 115.771 410.641 115.525C410.641 115.28 410.839 115.081 411.085 115.081C411.331 115.081 411.529 115.28 411.529 115.525C411.529 115.771 411.331 115.97 411.085 115.97Z" fill="#250048"/>
<path d="M407.22 115.148C406.974 115.148 406.775 114.95 406.775 114.704C406.775 114.459 406.974 114.26 407.22 114.26C407.463 114.26 407.664 114.459 407.664 114.704C407.664 114.95 407.463 115.148 407.22 115.148Z" fill="#250048"/>
<path fill-rule="evenodd" clip-rule="evenodd" d="M411.288 116.358C411.306 116.364 411.324 116.369 411.339 116.374C411.406 116.394 411.474 116.356 411.494 116.29C411.514 116.223 411.477 116.153 411.411 116.134C411.399 116.13 411.381 116.125 411.364 116.12C411.213 116.073 410.887 115.971 410.583 115.971C410.515 115.971 410.458 116.028 410.458 116.097C410.458 116.166 410.515 116.222 410.583 116.222C410.847 116.222 411.133 116.31 411.288 116.358Z" fill="#250048"/>
<path fill-rule="evenodd" clip-rule="evenodd" d="M412.16 114.276C412.16 114.277 412.16 114.278 412.16 114.278V114.278C412.16 114.278 412.16 114.278 412.16 114.278V114.277V114.277V114.276ZM412.16 114.274V114.278C412.205 114.456 412.385 114.563 412.564 114.519C412.742 114.474 412.852 114.293 412.807 114.114L412.483 114.195C412.807 114.114 412.807 114.114 412.807 114.113V114.113V114.112L412.805 114.11V114.104C412.802 114.099 412.802 114.094 412.8 114.087C412.795 114.073 412.79 114.055 412.782 114.033C412.767 113.989 412.744 113.928 412.712 113.858C412.647 113.716 412.541 113.529 412.378 113.341C412.042 112.957 411.479 112.593 410.586 112.593C410.4 112.593 410.252 112.742 410.252 112.927C410.252 113.111 410.4 113.261 410.586 113.261C411.274 113.261 411.658 113.531 411.876 113.781C411.989 113.91 412.062 114.039 412.104 114.136C412.127 114.184 412.142 114.222 412.15 114.247C412.155 114.26 412.157 114.269 412.16 114.274Z" fill="#250048"/>
<path d="M415.49 116.254C415.49 116.254 417.712 126.706 407.576 126.706C400.927 126.706 401.245 116.888 406.941 117.205C406.941 117.205 410.277 116.947 410.711 118.744C410.854 119.334 411.431 119.743 412.039 119.7C412.912 119.64 413.894 118.958 413.786 116.159L413.874 113.48C413.894 112.919 413.445 112.455 412.882 112.455C412.225 112.455 411.693 111.922 411.693 111.263C411.693 110.873 411.376 110.554 410.982 110.554H407.576C407.576 110.554 405.859 110.554 405.447 107.097C405.344 106.238 406.022 105.485 406.886 105.485H414.722C418.686 105.485 421.979 108.833 421.507 112.77C421.09 116.238 419.499 119.142 415.49 116.254Z" fill="#250048"/>
<path d="M406.622 120.662C406.524 120.889 406.306 121.017 406.09 120.965C405.164 120.748 405.382 119.738 405.382 119.738C405.382 118.47 407.295 118.47 407.295 118.47C409.75 118.47 409.476 120.055 409.476 120.055C409.476 120.941 408.809 121.052 408.407 121.038C408.229 121.033 408.071 120.908 407.993 120.724L407.96 120.648C407.887 120.477 407.739 120.372 407.574 120.372H407.016C406.851 120.372 406.7 120.48 406.627 120.648L406.622 120.662Z" fill="#45D1F0"/>
<path fill-rule="evenodd" clip-rule="evenodd" d="M408.884 119.302C408.819 119.281 408.746 119.316 408.726 119.381C408.588 119.791 408.251 119.933 407.918 119.97C407.752 119.989 407.594 119.98 407.478 119.965C407.418 119.958 407.37 119.95 407.338 119.944C407.323 119.941 407.31 119.938 407.3 119.936L407.293 119.934L407.29 119.934C407.29 119.934 407.29 119.934 407.26 120.055L407.23 120.177C407.162 120.16 407.122 120.092 407.137 120.025C407.155 119.958 407.222 119.917 407.29 119.934L408.884 119.302ZM407.26 120.055C407.23 120.177 407.23 120.177 407.23 120.177V120.177V120.177L407.235 120.178L407.247 120.181C407.257 120.183 407.272 120.186 407.29 120.19C407.328 120.197 407.383 120.206 407.448 120.214C407.576 120.23 407.757 120.24 407.945 120.219C408.327 120.177 408.781 120.002 408.962 119.461C408.984 119.395 408.949 119.324 408.884 119.302" fill="#250048"/>
<path d="M418.269 119.757C418.269 119.757 416.108 119.605 416.108 118.367L417.682 119.025L418.269 119.757Z" fill="#250048"/>
<path d="M417.187 119.085C416.027 119.085 415.086 118.144 415.086 116.983C415.086 115.822 416.027 114.88 417.187 114.88C418.347 114.88 419.288 115.822 419.288 116.983C419.288 118.144 418.347 119.085 417.187 119.085Z" fill="#45D1F0"/>
<path fill-rule="evenodd" clip-rule="evenodd" d="M418.264 116.432C418.322 116.503 418.427 116.515 418.498 116.457C418.571 116.4 418.583 116.294 418.525 116.223L418.395 116.327C418.525 116.223 418.525 116.223 418.525 116.222V116.222L418.523 116.221L418.52 116.217C418.518 116.215 418.515 116.211 418.51 116.206C418.503 116.196 418.49 116.182 418.475 116.165C418.445 116.132 418.4 116.085 418.342 116.032C418.229 115.927 418.063 115.793 417.858 115.681C417.438 115.457 416.846 115.324 416.196 115.715C416.156 115.739 416.128 115.78 416.118 115.826C416.108 115.873 416.121 115.92 416.148 115.958L416.733 116.738L415.973 117.118C415.89 117.159 415.857 117.259 415.897 117.342C415.937 117.424 416.038 117.458 416.121 117.416L417.062 116.948C417.105 116.926 417.137 116.885 417.15 116.837C417.16 116.789 417.15 116.738 417.12 116.698L416.532 115.915C416.987 115.711 417.391 115.809 417.7 115.975C417.873 116.07 418.016 116.185 418.116 116.277C418.164 116.323 418.204 116.363 418.229 116.391C418.242 116.404 418.252 116.415 418.257 116.422L418.262 116.43L418.264 116.432Z" fill="#250048"/>
<path d="M415.694 118.668V114.672L414.223 115.306L414.542 118.79L415.694 118.668Z" fill="#250048"/>
<path d="M405.581 117.115L408.871 117.338C409.486 117.378 410.019 116.912 410.061 116.297C410.104 115.682 409.637 115.149 409.022 115.105L405.731 114.883C405.114 114.842 404.584 115.308 404.542 115.923C404.499 116.541 404.966 117.075 405.581 117.115Z" fill="#45D1F0"/>
<path fill-rule="evenodd" clip-rule="evenodd" d="M412.91 152.568C412.727 152.568 412.576 152.717 412.576 152.902H412.91C412.576 152.902 412.576 152.902 412.576 152.902V152.909V152.928C412.576 152.945 412.576 152.97 412.579 153.002C412.579 153.066 412.579 153.158 412.581 153.271C412.586 153.496 412.596 153.807 412.614 154.147C412.649 154.813 412.719 155.64 412.877 156.143C412.93 156.32 413.118 156.418 413.294 156.363C413.47 156.309 413.568 156.122 413.515 155.945C413.387 155.533 413.317 154.788 413.279 154.112C413.261 153.781 413.254 153.478 413.249 153.257C413.246 153.147 413.246 153.058 413.246 152.996C413.244 152.965 413.244 152.942 413.244 152.925V152.907V152.902" fill="#250048"/>
<path d="M389.072 105.775L413.294 97.4159C414.574 96.9742 414.69 95.2091 413.477 94.6049L390.487 83.151C389.707 82.7605 388.758 83.1053 388.409 83.9039C387.023 87.0861 384.285 95.19 387.109 104.766C387.355 105.598 388.248 106.058 389.072 105.775Z" fill="#F9386A"/>
<path d="M395.523 102.319C395.523 102.319 374.132 132.045 398.234 147.397C398.234 147.397 422.634 163.54 438.621 134.881C440.433 131.633 439.291 127.527 436.068 125.671C433.016 123.912 429.133 124.783 427.105 127.667C422.702 133.928 417.2 140.246 406.374 133.257C393.723 125.089 405.756 108.777 405.756 108.777L409.17 102.849C409.17 102.849 413.066 97.0993 406.16 92.2378C406.16 92.2378 404.3 90.8722 403.894 91.4357C403.693 91.714 403.673 92.0927 404.83 93.5308C404.83 93.5308 406.369 95.2648 406.18 96.3095C406.138 96.5413 405.819 96.5772 405.729 96.3595C405.309 95.3457 404.037 92.7802 401.421 91.2745C401.421 91.2745 399.968 90.7316 401.007 92.5075C401.007 92.5075 402.353 94.3015 402.566 95.688C402.614 96.0003 402.172 96.1116 402.061 95.816C401.635 94.683 400.638 92.7709 398.422 91.1027C397.849 90.6736 397.059 91.2534 397.315 91.9189C397.568 92.5783 397.844 92.8312 398.319 93.6044C399.981 96.3273 395.523 102.319 395.523 102.319Z" fill="#45D1F0"/>
<path d="M436.907 144.266L418.756 133.812C418.756 133.812 425.97 118.009 435.662 123.592C445.356 129.178 436.907 144.266 436.907 144.266Z" fill="#F9386A"/>
<path d="M390.49 83.149L390.535 83.1711C398.575 96.974 389.082 105.687 389.082 105.687L388.888 105.816C388.123 105.979 387.34 105.537 387.111 104.765C384.29 95.187 387.028 87.0853 388.414 83.9031C388.758 83.1018 389.707 82.7608 390.49 83.149Z" fill="#250048"/>
<path fill-rule="evenodd" clip-rule="evenodd" d="M295.495 251.362C295.495 251.362 295.495 251.362 295.794 251.513C296.09 251.666 296.09 251.663 296.09 251.663L296.093 251.661L296.095 251.656C296.098 251.648 296.103 251.641 296.108 251.631C296.118 251.611 296.13 251.58 296.148 251.545C296.183 251.47 296.231 251.364 296.281 251.234C296.384 250.977 296.509 250.62 296.595 250.228C296.755 249.485 296.803 248.434 295.99 247.843L295.598 248.383C296.05 248.712 296.098 249.361 295.942 250.088C295.867 250.431 295.756 250.751 295.661 250.987C295.616 251.104 295.573 251.199 295.543 251.264C295.528 251.297 295.515 251.322 295.508 251.339C295.503 251.347 295.5 251.352 295.498 251.357L295.495 251.359V251.362Z" fill="#250048"/>
<path d="M321.781 250.609L323.917 233.169L292.199 228.544L290.498 242.422L316.02 246.144C317.514 246.362 318.761 247.465 319.218 248.97L319.77 250.78C320.107 251.884 321.64 251.756 321.781 250.609Z" fill="#F9386A"/>
<path d="M322.74 251.045L324.911 233.314L323.917 233.169L321.746 250.901C321.71 251.186 321.904 251.453 322.177 251.493C322.453 251.533 322.704 251.335 322.74 251.045Z" fill="#250048"/>
<path fill-rule="evenodd" clip-rule="evenodd" d="M323.463 245.772C323.282 245.451 322.875 245.336 322.554 245.517L318.643 247.713C318.322 247.893 318.206 248.3 318.387 248.622C318.568 248.944 318.975 249.058 319.296 248.877L323.207 246.682C323.528 246.501 323.643 246.094 323.463 245.772Z" fill="#250048"/>
<path fill-rule="evenodd" clip-rule="evenodd" d="M320.844 232.05C320.485 231.957 320.122 232.171 320.029 232.528L320.674 232.696C320.029 232.528 320.029 232.528 320.029 232.528V232.529V232.531L320.026 232.536L320.024 232.549C320.021 232.56 320.016 232.574 320.014 232.591C320.006 232.625 319.996 232.673 319.986 232.731C319.963 232.848 319.941 233.012 319.926 233.209C319.898 233.598 319.903 234.138 320.059 234.711C320.217 235.29 320.531 235.908 321.111 236.421C321.693 236.935 322.499 237.307 323.583 237.465C323.949 237.518 324.288 237.265 324.341 236.901C324.394 236.535 324.143 236.196 323.776 236.143C322.898 236.015 322.345 235.731 321.994 235.42C321.645 235.11 321.452 234.737 321.349 234.36C321.244 233.977 321.236 233.598 321.259 233.307C321.269 233.163 321.286 233.046 321.299 232.967C321.306 232.929 321.314 232.899 321.316 232.882C321.319 232.873 321.319 232.867 321.321 232.864C321.321 232.863 321.321 232.862 321.321 232.862V232.863V232.864V232.865C321.414 232.508 321.201 232.143 320.844 232.05Z" fill="#250048"/>
<path d="M249.663 127.339C245.499 127.339 242.124 123.959 242.124 119.79C242.124 115.621 245.499 112.241 249.663 112.241C253.827 112.241 257.201 115.621 257.201 119.79C257.201 123.959 253.827 127.339 249.663 127.339Z" fill="#B2AFAB"/>
<path d="M273.185 154.084C273.185 154.084 265.409 216.64 304.486 221.536L300.36 252.575C300.36 252.575 229.334 237.91 245.138 171.236C245.138 171.236 247.168 160.553 250.851 149.401C254.455 138.483 263.81 135.302 273.185 154.084Z" fill="#250048"/>
<path d="M203.867 171.569C203.867 171.569 202.731 176.544 204.255 176.809C205.779 177.074 206.553 172.312 206.553 172.312C206.553 172.312 207.495 169.796 210.241 168.84C212.988 167.884 209.354 167.025 209.354 167.025L203.867 171.569Z" fill="#250048"/>
<path d="M255.03 131.656C255.03 131.656 240.808 145.128 219.207 155.382C219.207 155.382 203.235 162.061 200.497 174.881C200.397 175.343 200.525 175.834 200.874 176.152C201.493 176.709 202.535 176.137 204.872 172.436C208.234 167.107 209.979 170.363 209.979 170.363C209.979 170.363 210.38 175.79 212.248 175.651C212.248 175.651 213.323 175.68 213.832 173.252C214.291 171.062 215.744 169.21 217.777 168.275C224.445 165.208 239.522 158.941 257.72 155.681L255.03 131.656Z" fill="#CD406C"/>
<path d="M243.289 139.841L263.75 132.679L267.543 143.546L247.082 150.708L243.289 139.841Z" fill="#250048"/>
<path d="M244.467 129.277C244.666 129.209 244.865 129.154 245.07 129.112C245.734 128.975 246.261 128.455 246.466 127.72C247.365 124.499 249.162 122.115 251.727 121.235C256.827 119.48 263.195 124.263 266.749 132.153C267.357 133.506 266.882 135.042 265.723 135.439L256.092 138.754L247.363 141.758L243.223 143.182C242.025 143.594 240.655 142.602 240.372 141.099C239.31 135.499 240.918 130.499 244.467 129.277Z" fill="#250048"/>
<path d="M243.273 148.091C243.273 148.091 238.982 142.725 237.982 144.122C236.983 145.52 238.25 148.984 238.25 148.984C238.25 148.984 243.383 151.311 243.273 148.091Z" fill="#250048"/>
<path d="M236.005 157.646L240.805 155.61C241.461 155.332 241.767 154.573 241.49 153.916L236.702 142.591C236.424 141.934 235.666 141.627 235.01 141.905L230.21 143.941C229.555 144.219 229.248 144.978 229.526 145.635L234.313 156.96C234.591 157.617 235.346 157.924 236.005 157.646Z" fill="white"/>
<path fill-rule="evenodd" clip-rule="evenodd" d="M235.934 142.917C235.934 142.917 235.934 142.916 235.934 142.917L240.721 154.242C240.82 154.474 240.711 154.743 240.479 154.842L235.934 142.917ZM240.479 154.842L235.68 156.877C235.446 156.976 235.18 156.867 235.081 156.635C235.081 156.635 235.082 156.635 235.081 156.635L230.294 145.309C230.196 145.077 230.305 144.808 230.536 144.71C230.536 144.71 230.536 144.71 230.536 144.71L230.537 144.709L235.337 142.674C235.567 142.576 235.836 142.684 235.934 142.917L240.479 154.842ZM234.685 141.137C235.766 140.678 237.013 141.185 237.471 142.265L242.258 153.591C242.258 153.591 242.258 153.591 242.258 153.591C242.258 153.591 242.258 153.591 242.258 153.591C242.716 154.672 242.211 155.921 241.131 156.379L241.131 156.379L236.331 158.415L236.33 158.415C235.247 158.873 234.002 158.367 233.545 157.286L233.544 157.286L228.757 145.961C228.757 145.96 228.757 145.96 228.757 145.96C228.3 144.879 228.805 143.631 229.884 143.172L234.685 141.137H234.685Z" fill="#250048"/>
<path d="M209.625 264.631H226.837V231.835H213.14V258.225C213.14 259.77 212.248 261.173 210.85 261.826L209.174 262.612C208.148 263.089 208.492 264.631 209.625 264.631Z" fill="#F9386A"/>
<path d="M234.893 124.894C231.145 124.894 228.107 121.851 228.107 118.099C228.107 114.346 231.145 111.304 234.893 111.304C238.641 111.304 241.679 114.346 241.679 118.099C241.679 121.851 238.641 124.894 234.893 124.894Z" fill="#B2AFAB"/>
<path d="M247.14 131.103C248.546 130.333 249.018 128.536 248.173 127.171L243.588 119.761C242.807 118.498 241.172 118.067 239.869 118.779C238.463 119.548 237.991 121.345 238.835 122.711L243.42 130.12C244.202 131.384 245.836 131.814 247.14 131.103Z" fill="#F9386A"/>
<path d="M241.369 126.805C241.369 126.805 244.307 123.627 243.187 121.946L240.168 124.864L241.369 126.805Z" fill="#250048"/>
<path d="M243.541 122.8L238.164 127.296C236.637 128.573 234.316 127.53 234.25 125.542L234.048 119.527C233.954 116.677 236.183 114.287 239.032 114.193L244.839 113.998C244.837 113.998 249.695 116.543 243.541 122.8Z" fill="#F9386A"/>
<path d="M236.873 119.79C236.654 119.79 236.477 119.613 236.477 119.393C236.477 119.174 236.654 118.997 236.873 118.997C237.092 118.997 237.269 119.174 237.269 119.393C237.269 119.613 237.092 119.79 236.873 119.79Z" fill="#250048"/>
<path fill-rule="evenodd" clip-rule="evenodd" d="M239.206 122.461C239.114 122.472 239.049 122.555 239.06 122.647C239.11 123.063 239.054 123.328 238.963 123.497C238.873 123.662 238.739 123.753 238.594 123.802C238.444 123.853 238.284 123.858 238.156 123.85C238.093 123.845 238.04 123.838 238.003 123.831C237.985 123.828 237.971 123.825 237.962 123.823C237.957 123.822 237.954 123.821 237.952 123.821L237.951 123.82H237.95C237.861 123.797 237.77 123.851 237.747 123.94C237.724 124.03 237.778 124.121 237.867 124.144L237.909 123.982C237.867 124.144 237.867 124.144 237.867 124.144H237.868L237.868 124.144L237.87 124.144L237.874 124.145C237.878 124.146 237.883 124.148 237.89 124.149C237.903 124.152 237.922 124.156 237.945 124.16C237.991 124.168 238.056 124.178 238.133 124.183C238.285 124.193 238.494 124.188 238.7 124.119C238.91 124.048 239.119 123.909 239.256 123.656C239.392 123.407 239.447 123.065 239.391 122.607C239.38 122.515 239.297 122.45 239.206 122.461Z" fill="#250048"/>
<path fill-rule="evenodd" clip-rule="evenodd" d="M236.249 119.563C236.227 119.652 236.281 119.743 236.371 119.765L237.247 119.983C237.336 120.006 237.427 119.951 237.449 119.862C237.472 119.772 237.417 119.682 237.328 119.659L236.451 119.441C236.362 119.419 236.271 119.474 236.249 119.563Z" fill="#250048"/>
<path d="M242.465 116.93C242.465 116.93 235.076 115.622 233.945 110.34C233.945 109.089 234.958 108.076 236.206 108.076H244.86C247.557 108.076 249.723 110.298 249.658 112.998L249.621 114.526C249.621 114.526 248.645 119.399 246.006 118.267C243.367 117.135 242.465 116.93 242.465 116.93Z" fill="#B2AFAB"/>
<path fill-rule="evenodd" clip-rule="evenodd" d="M239.225 121.19C239.225 121.19 239.225 121.19 239.244 121.356L239.225 121.19C239.134 121.2 239.068 121.283 239.078 121.374C239.089 121.466 239.171 121.532 239.263 121.521V121.522H239.263H239.262C239.262 121.522 239.263 121.522 239.263 121.521L239.268 121.521C239.274 121.521 239.282 121.52 239.294 121.52C239.317 121.519 239.351 121.519 239.391 121.522C239.474 121.529 239.577 121.548 239.674 121.595C239.769 121.642 239.858 121.715 239.919 121.834C239.98 121.954 240.02 122.135 239.991 122.41C239.981 122.501 240.048 122.584 240.139 122.593C240.231 122.603 240.313 122.536 240.323 122.445C240.357 122.124 240.314 121.874 240.216 121.682C240.117 121.488 239.97 121.368 239.821 121.295C239.674 121.223 239.526 121.198 239.418 121.189C239.363 121.185 239.316 121.185 239.283 121.186C239.267 121.186 239.253 121.187 239.243 121.188C239.238 121.188 239.234 121.189 239.231 121.189L239.227 121.189L239.226 121.19H239.226H239.225Z" fill="#250048"/>
<path d="M244.957 121.353C243.482 121.353 242.287 120.155 242.287 118.679C242.287 117.202 243.482 116.005 244.957 116.005C246.432 116.005 247.627 117.202 247.627 118.679C247.627 120.155 246.432 121.353 244.957 121.353Z" fill="#F9386A"/>
<path fill-rule="evenodd" clip-rule="evenodd" d="M246.203 118.426L246.202 118.425L246.199 118.421C246.195 118.417 246.191 118.412 246.184 118.405C246.171 118.391 246.152 118.369 246.126 118.343C246.076 118.29 246.003 118.217 245.913 118.135C245.731 117.971 245.488 117.78 245.228 117.654C244.967 117.527 244.716 117.48 244.5 117.559C244.305 117.63 244.097 117.821 243.931 118.257L244.987 119.049C245.048 119.095 245.07 119.177 245.041 119.247L244.563 120.402C244.528 120.488 244.43 120.528 244.345 120.493C244.26 120.458 244.22 120.36 244.255 120.275L244.683 119.239L243.632 118.45C243.575 118.407 243.551 118.332 243.574 118.264C243.763 117.696 244.041 117.371 244.385 117.245C244.724 117.121 245.076 117.209 245.374 117.353C245.674 117.499 245.944 117.713 246.137 117.888C246.234 117.976 246.313 118.055 246.368 118.112C246.395 118.141 246.417 118.164 246.431 118.18C246.439 118.189 246.445 118.195 246.449 118.199L246.453 118.205L246.455 118.206L246.455 118.207C246.455 118.207 246.455 118.207 246.329 118.316L246.455 118.207C246.516 118.277 246.508 118.382 246.438 118.442C246.369 118.503 246.263 118.495 246.203 118.426Z" fill="#250048"/>
<path fill-rule="evenodd" clip-rule="evenodd" d="M238.682 118.654L238.682 118.655L238.682 118.655V118.655C238.682 118.655 238.682 118.655 238.682 118.654C238.681 118.652 238.679 118.649 238.676 118.644C238.671 118.633 238.662 118.616 238.649 118.594C238.625 118.55 238.586 118.485 238.535 118.406C238.431 118.248 238.278 118.045 238.082 117.857C237.689 117.481 237.179 117.211 236.534 117.373C236.266 117.441 235.993 117.278 235.926 117.01C235.858 116.742 236.021 116.469 236.289 116.402C237.396 116.123 238.246 116.627 238.775 117.134C239.04 117.388 239.239 117.654 239.371 117.855C239.438 117.957 239.489 118.043 239.524 118.106C239.541 118.137 239.555 118.162 239.565 118.181C239.569 118.191 239.573 118.198 239.576 118.204L239.58 118.211L239.581 118.213L239.581 118.214L239.582 118.215C239.582 118.215 239.582 118.215 239.132 118.435L239.582 118.215C239.703 118.464 239.599 118.764 239.351 118.885C239.102 119.006 238.803 118.903 238.682 118.654Z" fill="#250048"/>
<path d="M234.184 123.352L234.1 121.258L235.635 121.447C235.635 121.447 235.236 122.771 234.184 123.352Z" fill="#250048"/>
<path d="M233.282 122.306H235.102C235.63 122.306 236.055 121.878 236.055 121.353C236.055 120.825 235.627 120.399 235.102 120.399H233.282C232.755 120.399 232.33 120.828 232.33 121.353C232.327 121.878 232.755 122.306 233.282 122.306Z" fill="#F9386A"/>
<path d="M245.225 124.991C245.668 124.991 246.028 124.631 246.028 124.187V121.067C246.028 120.623 245.668 120.263 245.225 120.263C244.782 120.263 244.422 120.623 244.422 121.067V124.19C244.422 124.631 244.782 124.991 245.225 124.991Z" fill="white"/>
<path d="M266.662 140.124L245.425 146.974C244.617 147.234 244.147 148.072 244.341 148.899C244.777 150.754 245.112 153.921 242.909 155.46C233.406 162.103 203.495 183.081 204.906 250.914H233.749C233.749 250.914 231.069 187.979 261.004 176.178C261.004 176.178 282.111 165.497 269.671 141.372C269.107 140.277 267.834 139.746 266.662 140.124Z" fill="#FFC969"/>
<path d="M209.336 265.658H226.837V264.631H209.336C209.053 264.631 208.825 264.862 208.825 265.144C208.825 265.427 209.053 265.658 209.336 265.658Z" fill="#250048"/>
<path fill-rule="evenodd" clip-rule="evenodd" d="M211.28 260.766C210.996 261.003 210.958 261.424 211.194 261.708L214.067 265.156C214.303 265.44 214.723 265.477 215.007 265.241C215.29 265.005 215.328 264.586 215.092 264.302L212.22 260.852C211.984 260.571 211.563 260.53 211.28 260.766Z" fill="#250048"/>
<path fill-rule="evenodd" clip-rule="evenodd" d="M219.988 251.809C219.804 251.809 219.654 251.957 219.654 252.143V254.795L219.912 254.853L219.917 254.855C219.923 254.855 219.933 254.858 219.946 254.863C219.974 254.873 220.014 254.885 220.06 254.908C220.156 254.953 220.264 255.021 220.347 255.119C220.425 255.209 220.488 255.335 220.492 255.513C220.497 255.701 220.439 255.973 220.227 256.354C220.137 256.515 220.194 256.718 220.355 256.806C220.516 256.897 220.72 256.839 220.809 256.678C221.06 256.229 221.168 255.84 221.16 255.498C221.151 255.151 221.024 254.88 220.854 254.684C220.689 254.491 220.491 254.373 220.342 254.303C220.336 254.3 220.329 254.298 220.322 254.293V252.143C220.322 251.957 220.173 251.809 219.988 251.809Z" fill="#250048"/>
<path d="M243.68 186.737L257.949 185.952C260.447 185.815 262.362 183.675 262.224 181.174L261.86 174.556C261.724 172.055 259.586 170.138 257.088 170.274L242.819 171.06C240.322 171.196 238.407 173.337 238.544 175.837L238.908 182.456C239.045 184.959 241.183 186.874 243.68 186.737Z" fill="#F9386A"/>
<path fill-rule="evenodd" clip-rule="evenodd" d="M246.407 151.442C246.226 151.018 245.735 150.821 245.311 151.002C244.51 151.346 243.903 152.012 243.438 152.791C242.971 153.575 242.607 154.538 242.319 155.584C241.743 157.677 241.435 160.24 241.275 162.696C241.114 165.161 241.1 167.558 241.126 169.336C241.139 170.226 241.162 170.963 241.182 171.478C241.191 171.735 241.2 171.937 241.207 172.076C241.21 172.145 241.213 172.198 241.215 172.235L241.217 172.276L241.218 172.291C241.218 172.291 241.218 172.291 242.041 172.245L241.218 172.291C241.244 172.752 241.638 173.104 242.099 173.078C242.559 173.051 242.911 172.657 242.884 172.197L242.884 172.185L242.882 172.147C242.88 172.113 242.877 172.063 242.874 171.996C242.868 171.862 242.859 171.665 242.849 171.414C242.83 170.91 242.807 170.186 242.795 169.312C242.769 167.56 242.783 165.211 242.94 162.805C243.098 160.391 243.397 157.959 243.928 156.027C244.194 155.061 244.509 154.255 244.871 153.647C245.236 153.036 245.61 152.691 245.968 152.538C246.392 152.357 246.588 151.866 246.407 151.442Z" fill="white"/>
<path d="M243.184 159.834L266.508 162.027C276.192 162.938 282.548 152.13 277.056 144.093L265.17 126.695C262.984 123.496 258.707 122.529 255.361 124.476C251.83 126.532 250.796 131.165 253.122 134.527L261.661 146.869C262.053 147.437 261.601 148.206 260.913 148.138L239.155 145.94C239.155 145.94 231.598 145.018 228.962 148.698C228.962 148.698 228.282 150.271 229.951 149.64C229.951 149.64 233.269 148.879 235.551 149.357C236.133 149.478 236.149 150.31 235.572 150.457C233.914 150.883 230.929 150.943 229.696 152.611C229.696 152.611 228.691 154.221 230.764 154.048C231.821 153.958 234.197 153.68 235.905 154.077C236.458 154.205 236.453 154.998 235.897 155.119C234.223 155.487 231.69 156.222 231.052 157.412C231.052 157.412 230.097 158.925 231.656 158.991C233.214 159.057 234.187 158.925 238.232 159.282C240.897 159.519 243.184 159.834 243.184 159.834Z" fill="#F9386A"/>
<path fill-rule="evenodd" clip-rule="evenodd" d="M257.186 171.353V171.35V171.337C257.186 171.325 257.186 171.307 257.186 171.284C257.188 171.236 257.188 171.165 257.188 171.071C257.188 170.883 257.186 170.606 257.181 170.252C257.171 169.546 257.141 168.535 257.068 167.325C256.92 164.901 256.601 161.696 255.913 158.538C255.223 155.365 254.174 152.319 252.615 150.156C251.081 148.028 249.105 146.811 246.455 147.07C245.996 147.115 245.588 146.779 245.544 146.32C245.499 145.861 245.834 145.453 246.293 145.408C249.686 145.077 252.186 146.707 253.968 149.179C255.728 151.617 256.835 154.927 257.545 158.183C258.258 161.454 258.584 164.752 258.732 167.224C258.807 168.463 258.838 169.498 258.85 170.225C258.855 170.589 258.858 170.876 258.858 171.073C258.858 171.171 258.855 171.247 258.855 171.299C258.855 171.325 258.855 171.345 258.855 171.359V171.375V171.38C258.855 171.381 258.855 171.381 258.019 171.367L258.855 171.381C258.848 171.842 258.469 172.209 258.007 172.202C257.545 172.194 257.178 171.814 257.186 171.353Z" fill="white"/>
<path fill-rule="evenodd" clip-rule="evenodd" d="M262.648 174.522C262.47 174.096 261.983 173.894 261.556 174.071L250.029 178.857L238.816 174.689C238.384 174.529 237.904 174.749 237.743 175.181C237.583 175.614 237.803 176.094 238.235 176.255L250.063 180.65L262.196 175.613C262.623 175.436 262.824 174.948 262.648 174.522Z" fill="white"/>
<path fill-rule="evenodd" clip-rule="evenodd" d="M261.109 151.344C261.009 151.498 261.049 151.706 261.205 151.807L265.512 154.657C265.665 154.759 265.871 154.716 265.974 154.562C266.074 154.409 266.034 154.202 265.878 154.1L261.571 151.25C261.418 151.148 261.212 151.19 261.109 151.344Z" fill="#250048"/>
<path d="M205.16 235.141H234.093C234.046 235.859 234.001 236.56 233.964 237.243H205.056C205.087 236.536 205.124 235.837 205.16 235.141Z" fill="white"/>
<path d="M204.872 243.707H233.717C233.702 244.458 233.694 245.159 233.688 245.808H204.856C204.858 245.101 204.864 244.4 204.872 243.707Z" fill="white"/>
<path d="M289.436 215.511L278.419 244.261C277.804 243.935 277.181 243.599 276.559 243.252L287.734 214.09C288.284 214.584 288.848 215.057 289.436 215.511Z" fill="white"/>
<path d="M291.07 249.816C290.43 249.588 289.767 249.343 289.082 249.081L295.425 219.078C296.065 219.362 296.725 219.625 297.403 219.866L291.07 249.816Z" fill="white"/>
<path d="M225.271 85.7082L226.517 78.3499L227.14 85.7082L234.073 84.2183L228.773 88.0539L233.836 92.4365L227.763 89.6983L226.127 96.4306L224.569 89.6983L218.259 93.3754L223.323 87.507L219.036 82.4193L225.271 85.7082Z" fill="#FFC969"/>
<path d="M91.194 54.2025L100.531 50.9374L92.4205 56.4104L98.6947 63.6396L90.7761 59.8487L89.0248 68.6505L88.2098 59.7149L79.3418 62.1158L86.1138 55.942L77.7163 50.8566L87.833 53.0597L90.9107 44.7212L91.194 54.2025Z" fill="#FFC969"/>
<path d="M35.6778 129.628L36.6866 123.803L37.1909 129.628L42.8032 128.448L38.5127 131.485L42.6117 134.955L37.6954 132.787L36.3706 138.117L35.1095 132.787L30.0017 135.698L34.1007 131.052L30.6307 127.024L35.6778 129.628Z" fill="#FFC969"/>
<path d="M275.361 74.4018C275.781 73.6768 275.532 72.7492 274.807 72.3293C274.079 71.9097 273.153 72.1571 272.733 72.8818C272.314 73.6065 272.563 74.5344 273.291 74.954C274.016 75.3739 274.945 75.1266 275.361 74.4018Z" fill="#FFC969"/>
<path d="M261.368 44.5013L254.141 38.6323L262.51 42.4792L265.133 34.0652L266.057 42.1548L273.911 39.3706L267.224 44.2569L273.532 50.1636L265.271 47.7121L265.404 56.7962L262.128 47.7136L253.983 49.2241L261.368 44.5013Z" fill="#FFC969"/>
<path d="M204.817 61.3445L205.92 60.6178C206.221 60.4211 206.627 60.5032 206.823 60.8051L207.781 62.2676C207.977 62.5695 207.895 62.9763 207.594 63.1727L205.031 64.8594C204.73 65.0561 204.324 64.9737 204.128 64.6721C203.399 63.5614 203.709 62.0712 204.817 61.3445Z" fill="#271049"/>
<path d="M199.241 53.3363L206.604 38.6957C207.188 37.5393 208.884 37.713 209.221 38.9609L209.271 39.1482C210.393 43.2894 210.083 47.6866 208.387 51.6267L208.145 52.1844C206.937 54.9909 204.096 56.7324 201.051 56.5223C199.487 56.417 198.534 54.7441 199.241 53.3363Z" fill="#271049"/>
<path d="M208.04 56.8738L237.262 60.8641C237.786 60.9374 238.146 61.4492 238.037 61.9703C237.941 62.4228 237.522 62.7247 237.066 62.6697L234.809 62.3816C234.248 62.3085 233.737 62.6925 233.642 63.2548C233.446 64.3976 232.429 65.1836 231.289 65.0787L229.894 64.9506C229.379 64.9049 228.913 65.2386 228.781 65.7414L228.74 65.8968C228.54 66.6876 227.765 67.172 226.967 67.003L206.226 62.5783L208.04 56.8738Z" fill="#271049"/>
<path d="M202.368 51.3299L201.023 48.8204C200.421 47.6914 199.012 47.2708 197.891 47.8787L197.48 48.1027C197.111 48.3039 196.979 48.7609 197.175 49.1311L197.517 49.7619L198.488 51.5537L198.698 51.9424C198.999 52.4999 198.985 53.1626 198.693 53.7248C198.415 54.2597 198.383 54.8767 198.666 55.4023L201.018 59.7492C201.734 61.0749 203.057 61.9935 204.657 62.2861L207.835 62.8667C209.453 63.1637 210.903 61.4724 210.178 60.138L206.034 52.4815C205.382 51.2566 203.813 50.7995 202.368 51.3299Z" fill="#F9386A"/>
<path d="M202.578 50.6715L217.779 39.4454C218.978 38.5587 220.638 39.6237 220.337 41.091L220.291 41.3105C219.293 46.1601 216.68 50.5299 212.887 53.6975L212.349 54.1455C209.645 56.4033 205.811 56.7097 202.783 54.9042C201.228 53.9717 201.119 51.7503 202.578 50.6715Z" fill="#271049"/>
<path d="M199.158 48.9482C199.322 48.9482 199.454 48.8151 199.454 48.6508C199.454 48.4869 199.322 48.3538 199.158 48.3538C198.995 48.3538 198.862 48.4869 198.862 48.6508C198.862 48.8151 198.995 48.9482 199.158 48.9482Z" fill="#271049"/>
<path d="M196.168 48.8203L197.226 48.2445C197.476 48.1073 197.796 48.1988 197.932 48.4546L198.174 48.9026C198.407 49.3323 198.247 49.8717 197.818 50.1048L195.397 51.4211C194.896 50.4887 195.238 49.323 196.168 48.8203Z" fill="#271049"/>
<path d="M206.859 61.2439L207.963 60.5171C208.264 60.3205 208.669 60.4028 208.865 60.7044L209.823 62.1672C210.019 62.4688 209.937 62.8756 209.636 63.0723L207.074 64.7588C206.773 64.9554 206.367 64.8731 206.171 64.5715C205.446 63.4608 205.751 61.9706 206.859 61.2439Z" fill="#FFC969"/>
<path d="M207.447 64.5259C207.429 64.503 206.987 63.9591 207.083 63.3147C207.142 62.9214 207.384 62.5832 207.803 62.3044L207.931 62.4966C207.566 62.7341 207.356 63.0221 207.311 63.3466C207.229 63.8905 207.621 64.3752 207.625 64.3797L207.447 64.5259Z" fill="#271049"/>
<path d="M170.083 78.7278L171.225 81.0441L168.506 82.3858L167.406 80.1561C165.441 80.749 163.259 80.5627 161.259 79.2323L162.383 76.1211C163.885 77.1578 165.684 77.3177 167.068 76.6349C168.384 75.9853 168.78 74.8741 168.331 73.9637C167.925 73.1403 167.096 72.9864 166.114 72.9563C165.059 72.9377 163.257 73.0489 161.911 72.8749C159.973 72.5916 158.575 71.7187 157.787 70.1201C156.633 67.7794 157.379 65.3691 159.431 63.764L158.396 61.6643L161.139 60.3105L162.174 62.4102C163.599 62.0302 165.106 62.0948 166.743 62.6882L166.103 65.8601C164.392 65.3335 163.099 65.4862 162.172 65.9439C161.029 66.508 160.622 67.4873 161.061 68.3783C161.477 69.2211 162.5 69.2851 163.525 69.3419C164.493 69.4029 166.37 69.2849 167.757 69.4328C169.932 69.6528 171.101 70.7162 171.752 72.0356C172.968 74.5014 172.161 77.0553 170.083 78.7278Z" fill="#271049"/>
<path d="M310.852 64.4662L309.943 67.6251L306.236 66.5571L307.112 63.5167C304.755 62.3897 302.86 60.3438 302.117 57.3778L305.839 55.4133C306.366 57.6769 307.92 59.3695 309.808 59.9129C311.602 60.4299 312.928 59.7233 313.284 58.482C313.608 57.3592 312.96 56.5042 312.059 55.6338C311.085 54.7124 309.293 53.272 308.176 51.9546C306.595 50.0273 306.027 48.0077 306.655 45.8275C307.574 42.636 310.34 41.008 313.646 41.2559L314.469 38.3928L318.209 39.4701L317.386 42.3332C319.052 43.1973 320.415 44.5498 321.447 46.5111L318.126 48.9472C316.969 46.9849 315.621 46.0209 314.356 45.6567C312.797 45.2077 311.577 45.7803 311.226 46.9952C310.897 48.1444 311.803 49.0815 312.719 50.0139C313.578 50.9012 315.445 52.3988 316.625 53.7268C318.483 55.798 318.671 57.8012 318.154 59.6005C317.187 62.9628 314.241 64.6741 310.852 64.4662Z" fill="#271049"/>
<path d="M39.9052 98.0551L39.4222 101.046L35.9119 100.478L36.3767 97.5996C34.0958 96.8289 32.1369 95.1662 31.1301 92.5345L34.3187 90.3256C35.0502 92.3386 36.6604 93.7155 38.4466 94.0043C40.1459 94.279 41.2795 93.486 41.4692 92.311C41.6409 91.2477 40.9539 90.5371 40.0355 89.84C39.0407 89.1049 37.2425 87.9847 36.0743 86.9028C34.4153 85.314 33.6729 83.5288 34.0062 81.4646C34.4942 78.4428 36.8461 76.6476 39.8977 76.5092L40.3354 73.7983L43.8767 74.3709L43.4389 77.0817C45.0592 77.6882 46.4555 78.7751 47.616 80.4556L44.8486 83.0514C43.5714 81.384 42.2326 80.6507 41.0355 80.4573C39.5593 80.2188 38.5048 80.8777 38.3191 82.0278C38.1433 83.1159 39.0774 83.8731 40.0186 84.6249C40.9019 85.3419 42.776 86.5061 44.0007 87.5907C45.9297 89.2807 46.3243 91.0926 46.0492 92.7962C45.5351 95.9794 43.0278 97.8708 39.9052 98.0551Z" fill="#271049"/>
<path d="M371.692 83.9811C372.226 83.0543 371.908 81.8675 370.979 81.3308C370.05 80.7939 368.865 81.1103 368.328 82.0372C367.793 82.9641 368.112 84.1509 369.041 84.6878C369.97 85.2244 371.155 84.9083 371.692 83.9811Z" fill="#F9386A"/>
<path d="M114.19 72.9611C114.73 72.0264 114.408 70.8304 113.472 70.2892C112.536 69.748 111.34 70.0669 110.8 71.0014C110.26 71.9358 110.582 73.1321 111.518 73.6733C112.454 74.2145 113.65 73.8955 114.19 72.9611Z" fill="#FFC969"/>
<path d="M61.7103 53.1035C62.0617 52.4952 61.8526 51.7165 61.2434 51.3644C60.6339 51.0121 59.8553 51.2198 59.5039 51.828C59.1527 52.4362 59.3618 53.2147 59.971 53.567C60.5802 53.9194 61.3588 53.7117 61.7103 53.1035Z" fill="#FFC969"/>
<path d="M84.7959 31.0046C85.147 30.3964 84.9379 29.6177 84.3287 29.2656C83.7195 28.9133 82.9409 29.1207 82.5895 29.7292C82.2381 30.3374 82.4472 31.1159 83.0564 31.4682C83.6658 31.8205 84.4445 31.6129 84.7959 31.0046Z" fill="#FFC969"/>
<path d="M349.603 79.2099C350.138 78.283 349.819 77.0962 348.89 76.5596C347.961 76.0227 346.777 76.3391 346.239 77.266C345.705 78.1929 346.024 79.3797 346.952 79.9166C347.881 80.4532 349.066 80.137 349.603 79.2099Z" fill="#F9386A"/>
<path d="M366.237 65.912C366.626 65.2393 366.393 64.3777 365.72 63.9882C365.045 63.5984 364.184 63.828 363.795 64.501C363.408 65.1737 363.639 66.0353 364.312 66.4248C364.987 66.8146 365.848 66.585 366.237 65.912Z" fill="#F9386A"/>
</svg>
