<svg width="504" height="241" viewBox="0 0 504 241" fill="none" xmlns="http://www.w3.org/2000/svg">
<path d="M216 30H144V126H216V30Z" fill="white"/>
<path d="M212 34H148V122H212V34Z" fill="#F2F2F2"/>
<path d="M193.822 97.3197C192.199 97.3197 190.882 95.709 190.882 93.7195V84.3618C190.882 82.3746 192.197 80.7617 193.822 80.7617C195.445 80.7617 196.762 82.3723 196.762 84.3618V93.7195C196.76 95.709 195.445 97.3197 193.822 97.3197Z" fill="#F9386A"/>
<path d="M196.759 89.0771V87.0449L193.212 87.7544C193.212 87.7544 194.097 89.4439 196.759 89.0771Z" fill="#271749"/>
<path d="M193.822 88.6972C190.306 88.6972 187.456 85.8463 187.456 82.3322V71.0229H200.188V82.3322C200.187 85.8481 197.338 88.6972 193.822 88.6972Z" fill="#F9386A"/>
<path d="M201.422 79.8517C202.802 79.8517 203.921 78.7329 203.921 77.3527C203.921 75.9726 202.802 74.8538 201.422 74.8538C200.042 74.8538 198.923 75.9726 198.923 77.3527C198.923 78.7329 200.042 79.8517 201.422 79.8517Z" fill="#F9386A"/>
<path d="M186.143 80.3023C187.523 80.3023 188.642 79.1835 188.642 77.8034C188.642 76.4232 187.523 75.3044 186.143 75.3044C184.763 75.3044 183.644 76.4232 183.644 77.8034C183.644 79.1835 184.763 80.3023 186.143 80.3023Z" fill="#F9386A"/>
<path d="M195.032 81.5079C195.254 81.5079 195.382 81.7525 195.263 81.9396C195.028 82.3026 194.506 82.5564 193.898 82.5564C193.278 82.5564 192.746 82.2915 192.518 81.9155C192.411 81.7358 192.551 81.5079 192.763 81.5079H195.032Z" fill="#271749"/>
<path d="M190.772 78.9219C191.061 78.9219 191.296 78.6872 191.296 78.3977C191.296 78.1081 191.061 77.8734 190.772 77.8734C190.482 77.8734 190.248 78.1081 190.248 78.3977C190.248 78.6872 190.482 78.9219 190.772 78.9219Z" fill="#271749"/>
<path d="M197.222 78.9219C197.511 78.9219 197.746 78.6872 197.746 78.3977C197.746 78.1081 197.511 77.8734 197.222 77.8734C196.932 77.8734 196.697 78.1081 196.697 78.3977C196.697 78.6872 196.932 78.9219 197.222 78.9219Z" fill="#271749"/>
<path fill-rule="evenodd" clip-rule="evenodd" d="M192.845 84.8425C192.947 84.8425 193.03 84.9255 193.03 85.0278C193.03 85.4643 193.384 85.8169 193.819 85.8169C194.256 85.8169 194.608 85.4629 194.608 85.0278C194.608 84.9255 194.691 84.8425 194.794 84.8425C194.896 84.8425 194.979 84.9255 194.979 85.0278C194.979 85.6671 194.461 86.1874 193.819 86.1874C193.18 86.1874 192.66 85.6694 192.66 85.0278C192.66 84.9255 192.743 84.8425 192.845 84.8425Z" fill="#271749"/>
<path fill-rule="evenodd" clip-rule="evenodd" d="M196.053 76.7433C196.054 76.7427 196.057 76.7413 196.06 76.7392C196.068 76.7351 196.08 76.7283 196.098 76.7196C196.132 76.7021 196.185 76.677 196.253 76.6501C196.39 76.5958 196.581 76.5363 196.802 76.5127C197.23 76.467 197.777 76.5524 198.282 77.1211C198.418 77.2741 198.652 77.2881 198.805 77.1523C198.958 77.0165 198.972 76.7823 198.836 76.6292C198.144 75.8493 197.343 75.7097 196.723 75.776C196.419 75.8084 196.161 75.8893 195.98 75.9613C195.888 75.9975 195.815 76.0321 195.763 76.0585C195.737 76.0717 195.716 76.0829 195.701 76.0913C195.693 76.0955 195.687 76.0989 195.683 76.1016L195.677 76.1051L195.675 76.1063L195.674 76.1068L195.673 76.107C195.673 76.1071 195.673 76.1072 195.864 76.425L195.673 76.1072C195.498 76.2124 195.441 76.44 195.546 76.6155C195.651 76.7906 195.877 76.8477 196.053 76.7436C196.053 76.7435 196.053 76.7434 196.053 76.7433Z" fill="#271749"/>
<path fill-rule="evenodd" clip-rule="evenodd" d="M192.403 76.0787C192.404 76.0788 192.404 76.0789 192.249 76.4137L192.404 76.0789C192.59 76.1646 192.671 76.3847 192.585 76.5705C192.499 76.756 192.28 76.8372 192.094 76.752C192.094 76.7519 192.094 76.7518 192.093 76.7517L192.249 76.4153C192.093 76.7517 192.093 76.7517 192.094 76.7518V76.7519V76.752L192.092 76.7512C192.09 76.7503 192.086 76.7485 192.081 76.7461C192.069 76.7414 192.052 76.7339 192.028 76.7246C191.98 76.7059 191.909 76.6799 191.82 76.6526C191.64 76.5975 191.393 76.5395 191.122 76.523C190.581 76.4902 189.982 76.6193 189.557 77.2262C189.439 77.3938 189.208 77.4345 189.041 77.3171C188.873 77.1997 188.832 76.9686 188.95 76.8011C189.573 75.9111 190.471 75.7411 191.166 75.7833C191.513 75.8044 191.818 75.8773 192.036 75.944C192.146 75.9775 192.235 76.01 192.298 76.0346C192.329 76.0469 192.354 76.0573 192.372 76.065C192.381 76.0688 192.388 76.0719 192.394 76.0743L192.4 76.0772L192.402 76.0782L192.403 76.0786V76.0787Z" fill="#271749"/>
<path d="M189.342 72.2976C189.342 72.5865 189.095 72.8218 188.79 72.8218C188.484 72.8218 188.238 73.0571 188.238 73.346V75.5727C188.238 76.0154 187.86 76.3748 187.393 76.3748C187.163 76.3748 186.976 76.184 186.976 75.9487V71.9234V71.7418V60.4937C186.976 59.8564 187.519 59.3396 188.19 59.3396H199.164C199.834 59.3396 200.377 59.8564 200.377 60.4918V71.74V71.9215V75.9469C200.377 76.1822 200.19 76.373 199.96 76.373H199.882C199.458 76.373 199.115 76.0469 199.115 75.6431V73.6424C199.115 73.3535 198.869 73.1182 198.563 73.1182C198.258 73.1182 198.011 72.8829 198.011 72.5939V72.2938C198.011 71.8381 197.622 71.4695 197.144 71.4695H190.207C189.731 71.4732 189.342 71.8419 189.342 72.2976Z" fill="#271749"/>
<path d="M166.439 87.7978H166.183C164.527 87.7978 163.184 86.6547 163.184 85.2451V76.3526C163.184 75.7425 163.764 75.249 164.481 75.249H168.143C168.86 75.249 169.44 75.7425 169.44 76.3526V85.2451C169.44 86.6547 168.097 87.7978 166.439 87.7978Z" fill="#F9386A"/>
<path d="M169.407 83.3568C169.407 83.3568 166.508 83.9441 165.35 82.012L169.438 80.7449L169.407 83.3568Z" fill="#271749"/>
<path d="M166.419 82.9775C164.039 82.9775 161.973 81.2991 161.438 78.9317L159.988 72.5111C159.043 68.3319 162.151 64.3436 166.351 64.3436C170.495 64.3436 173.59 68.2337 172.744 72.3758L171.425 78.8261C170.928 81.2454 168.84 82.9775 166.419 82.9775Z" fill="#F9386A"/>
<path fill-rule="evenodd" clip-rule="evenodd" d="M168.065 78.3452C168.156 78.3909 168.194 78.5021 168.148 78.5937C167.791 79.3094 167.041 79.6053 166.427 79.7282C166.115 79.7906 165.825 79.8112 165.614 79.8164C165.508 79.819 165.421 79.8177 165.36 79.8157C165.329 79.8147 165.305 79.8136 165.289 79.8126C165.28 79.8122 165.274 79.8118 165.269 79.8115L165.264 79.8111L165.262 79.811V79.8109C165.262 79.8109 165.261 79.8109 165.276 79.6262L165.262 79.8109C165.16 79.8031 165.083 79.714 165.091 79.612C165.099 79.51 165.188 79.4337 165.29 79.4415L168.065 78.3452ZM165.29 79.4415L165.294 79.4418C165.297 79.442 165.302 79.4423 165.309 79.4427C165.323 79.4435 165.344 79.4445 165.372 79.4454C165.427 79.4472 165.507 79.4484 165.605 79.446C165.801 79.4412 166.069 79.422 166.354 79.3649C166.934 79.2489 167.538 78.9871 167.816 78.4284C167.862 78.3368 167.973 78.2996 168.065 78.3452" fill="#271749"/>
<path d="M163.319 73.2375C163.596 73.2375 163.821 73.0127 163.821 72.7355C163.821 72.4582 163.596 72.2335 163.319 72.2335C163.042 72.2335 162.817 72.4582 162.817 72.7355C162.817 73.0127 163.042 73.2375 163.319 73.2375Z" fill="#271749"/>
<path fill-rule="evenodd" clip-rule="evenodd" d="M161.946 71.4363L161.698 71.312C161.629 71.4493 161.685 71.6162 161.822 71.6848C161.959 71.7533 162.125 71.698 162.194 71.5613L161.946 71.4363ZM162.194 71.5612L162.195 71.56C162.196 71.5584 162.197 71.5554 162.2 71.5511C162.204 71.5425 162.212 71.5289 162.222 71.5112C162.243 71.4757 162.276 71.4241 162.32 71.3638C162.408 71.2421 162.539 71.0908 162.709 70.9632C162.878 70.8363 163.082 70.7362 163.322 70.7062C163.559 70.6765 163.852 70.7132 164.206 70.8901C164.343 70.9587 164.51 70.9031 164.579 70.7658C164.647 70.6286 164.592 70.4617 164.454 70.393C164.014 70.1726 163.611 70.11 163.253 70.1548C162.896 70.1993 162.604 70.3475 162.375 70.5186C162.148 70.689 161.981 70.8854 161.87 71.0369C161.815 71.1132 161.773 71.1796 161.744 71.2279C161.73 71.2521 161.719 71.2718 161.711 71.2861C161.707 71.2933 161.704 71.2991 161.702 71.3035L161.699 71.3089L161.698 71.3107V71.3115V71.3117C161.698 71.3119 161.698 71.312 161.946 71.4363" fill="#271749"/>
<path fill-rule="evenodd" clip-rule="evenodd" d="M162.355 73.226C162.355 73.1237 162.438 73.0408 162.541 73.0408H164.13C164.232 73.0408 164.315 73.1237 164.315 73.226C164.315 73.3283 164.232 73.4113 164.13 73.4113H162.541C162.438 73.4113 162.355 73.3283 162.355 73.226Z" fill="#271749"/>
<path d="M169.525 73.2375C169.802 73.2375 170.027 73.0127 170.027 72.7355C170.027 72.4582 169.802 72.2335 169.525 72.2335C169.248 72.2335 169.023 72.4582 169.023 72.7355C169.023 73.0127 169.248 73.2375 169.525 73.2375Z" fill="#271749"/>
<path fill-rule="evenodd" clip-rule="evenodd" d="M171.145 71.3117C171.145 71.3119 171.145 71.312 170.896 71.4363L171.145 71.312C171.213 71.4493 171.158 71.6162 171.021 71.6848C170.884 71.7533 170.717 71.698 170.648 71.5613C170.648 71.5611 170.648 71.561 170.648 71.5608V71.561V71.5612L170.647 71.56C170.647 71.5584 170.645 71.5554 170.643 71.5511C170.638 71.5425 170.631 71.5289 170.62 71.5112C170.599 71.4757 170.566 71.4241 170.523 71.3638C170.434 71.2421 170.304 71.0908 170.134 70.9632C169.964 70.8363 169.761 70.7362 169.521 70.7062C169.283 70.6765 168.99 70.7132 168.636 70.8901C168.499 70.9587 168.332 70.9031 168.264 70.7658C168.195 70.6286 168.251 70.4617 168.388 70.393C168.829 70.1726 169.231 70.11 169.59 70.1548C169.946 70.1993 170.239 70.3475 170.467 70.5186C170.694 70.689 170.862 70.8854 170.972 71.0369C171.028 71.1132 171.069 71.1796 171.098 71.2279C171.112 71.2521 171.123 71.2718 171.131 71.2861C171.135 71.2933 171.138 71.2991 171.14 71.3035L171.143 71.3089L171.144 71.3107L171.145 71.3115V71.3117Z" fill="#271749"/>
<path fill-rule="evenodd" clip-rule="evenodd" d="M168.526 73.226C168.526 73.1237 168.609 73.0408 168.711 73.0408H170.301C170.403 73.0408 170.486 73.1237 170.486 73.226C170.486 73.3283 170.403 73.4113 170.301 73.4113H168.711C168.609 73.4113 168.526 73.3283 168.526 73.226Z" fill="#271749"/>
<path d="M165.763 76.0063C166.139 76.0656 166.654 76.1045 167.21 76.023C167.466 75.9859 167.66 76.1971 167.519 76.3638C167.082 76.8825 166.282 77.4808 165.445 76.3323C165.321 76.1656 165.517 75.9674 165.763 76.0063Z" fill="#271749"/>
<path d="M158.584 76.7848C159.967 76.7848 161.088 75.6635 161.088 74.2803C161.088 72.8971 159.967 71.7758 158.584 71.7758C157.2 71.7758 156.079 72.8971 156.079 74.2803C156.079 75.6635 157.2 76.7848 158.584 76.7848Z" fill="#F9386A"/>
<path d="M174.036 76.5918C175.419 76.5918 176.54 75.4705 176.54 74.0873C176.54 72.7041 175.419 71.5828 174.036 71.5828C172.652 71.5828 171.531 72.7041 171.531 74.0873C171.531 75.4705 172.652 76.5918 174.036 76.5918Z" fill="#F9386A"/>
<path d="M166.267 54.7791C168.881 54.7791 171 52.66 171 50.046C171 47.432 168.881 45.313 166.267 45.313C163.653 45.313 161.534 47.432 161.534 50.046C161.534 52.66 163.653 54.7791 166.267 54.7791Z" fill="#271749"/>
<path d="M166.266 65.0139C169.839 65.0139 172.736 62.1168 172.736 58.5432C172.736 54.9696 169.839 52.0726 166.266 52.0726C162.692 52.0726 159.795 54.9696 159.795 58.5432C159.795 62.1168 162.692 65.0139 166.266 65.0139Z" fill="#271749"/>
<path d="M173.655 61.3441C169.27 56.4443 168.021 61.5367 168.021 61.5367L166.808 63.5559L165.513 61.5367C165.513 61.5367 164.722 56.7074 159.748 61.3441C154.774 65.9789 159.359 73.8019 160.328 74.2854C161.1 74.6725 160.895 73.6111 160.895 73.6111V70.1248C160.895 69.6487 161.28 69.2634 161.756 69.2634H161.962C162.34 69.2634 162.647 68.9577 162.647 68.5779V68.3927C162.647 67.8055 163.123 67.3312 163.709 67.3312H169.311C169.898 67.3312 170.372 67.8073 170.372 68.3927V68.5779C170.372 68.9558 170.678 69.2634 171.057 69.2634C171.533 69.2634 171.919 69.6487 171.919 70.1248V73.6111C171.919 73.6111 172.111 74.8652 172.884 73.9001C173.517 73.1054 176.939 65.0138 173.655 61.3441Z" fill="#271749"/>
<path d="M177.614 109.653C176.492 109.653 175.582 108.742 175.582 107.62V102.337C175.582 101.214 176.492 100.304 177.614 100.304C178.737 100.304 179.647 101.214 179.647 102.337V107.62C179.647 108.744 178.737 109.653 177.614 109.653Z" fill="#F9386A"/>
<path d="M175.572 105.556C175.572 105.556 178.109 105.723 178.464 104.895L175.572 104.878V105.556Z" fill="#271749"/>
<path d="M183.895 101.703C185.07 101.703 186.022 100.751 186.022 99.576C186.022 98.401 185.07 97.4485 183.895 97.4485C182.72 97.4485 181.767 98.401 181.767 99.576C181.767 100.751 182.72 101.703 183.895 101.703Z" fill="#F9386A"/>
<path d="M171.151 101.703C172.326 101.703 173.278 100.751 173.278 99.576C173.278 98.401 172.326 97.4485 171.151 97.4485C169.976 97.4485 169.023 98.401 169.023 99.576C169.023 100.751 169.976 101.703 171.151 101.703Z" fill="#F9386A"/>
<path d="M177.613 105.206C181.171 105.206 184.055 102.322 184.055 98.7645C184.055 95.2069 181.171 92.3229 177.613 92.3229C174.055 92.3229 171.171 95.2069 171.171 98.7645C171.171 102.322 174.055 105.206 177.613 105.206Z" fill="#F9386A"/>
<path fill-rule="evenodd" clip-rule="evenodd" d="M174.016 98.3928C174.016 98.3168 174.077 98.2552 174.153 98.2552H175.335C175.411 98.2552 175.472 98.3168 175.472 98.3928C175.472 98.4687 175.411 98.5303 175.335 98.5303H174.153C174.077 98.5303 174.016 98.4687 174.016 98.3928Z" fill="#271749"/>
<path d="M174.744 98.4399C174.985 98.4399 175.18 98.2448 175.18 98.0041C175.18 97.7634 174.985 97.5683 174.744 97.5683C174.504 97.5683 174.309 97.7634 174.309 98.0041C174.309 98.2448 174.504 98.4399 174.744 98.4399Z" fill="#271749"/>
<path d="M180.952 98.4399C181.193 98.4399 181.388 98.2448 181.388 98.0041C181.388 97.7634 181.193 97.5683 180.952 97.5683C180.712 97.5683 180.517 97.7634 180.517 98.0041C180.517 98.2448 180.712 98.4399 180.952 98.4399Z" fill="#271749"/>
<path fill-rule="evenodd" clip-rule="evenodd" d="M180.283 98.3928C180.283 98.3168 180.344 98.2552 180.42 98.2552H181.485C181.56 98.2552 181.622 98.3168 181.622 98.3928C181.622 98.4687 181.56 98.5303 181.485 98.5303H180.42C180.344 98.5303 180.283 98.4687 180.283 98.3928Z" fill="#271749"/>
<path d="M176.963 100.047H178.723C178.947 100.047 179.055 100.328 178.884 100.472C178.704 100.624 178.384 100.757 177.82 100.757C177.239 100.757 176.941 100.615 176.79 100.458C176.638 100.306 176.748 100.047 176.963 100.047Z" fill="#271749"/>
<path fill-rule="evenodd" clip-rule="evenodd" d="M180.125 101.816C180.193 101.85 180.221 101.933 180.187 102.001C179.922 102.532 179.366 102.752 178.909 102.843C178.678 102.889 178.463 102.904 178.306 102.908C178.227 102.91 178.162 102.909 178.117 102.908C178.095 102.907 178.077 102.906 178.064 102.905C178.058 102.905 178.053 102.905 178.05 102.905L178.046 102.904H178.045H178.044C178.044 102.904 178.044 102.904 178.055 102.767L178.044 102.904C177.969 102.898 177.912 102.832 177.918 102.757C177.923 102.681 177.989 102.624 178.065 102.63L180.125 101.816ZM178.065 102.63H178.066H178.068C178.071 102.63 178.075 102.631 178.08 102.631C178.09 102.631 178.106 102.632 178.126 102.633C178.167 102.634 178.226 102.635 178.299 102.633C178.445 102.63 178.644 102.615 178.855 102.573C179.286 102.487 179.734 102.293 179.941 101.878C179.975 101.81 180.057 101.782 180.125 101.816" fill="#271749"/>
<path fill-rule="evenodd" clip-rule="evenodd" d="M179.697 96.4002L179.698 96.3998C179.699 96.3993 179.702 96.3983 179.705 96.3968C179.713 96.394 179.725 96.3894 179.742 96.3837C179.776 96.3724 179.827 96.3567 179.891 96.3413C180.02 96.3103 180.198 96.2814 180.396 96.2878C180.783 96.3003 181.251 96.4447 181.605 97.0031C181.687 97.1313 181.857 97.1692 181.985 97.0877C182.113 97.0063 182.151 96.8363 182.07 96.7081C181.598 95.9655 180.943 95.7551 180.414 95.738C180.154 95.7296 179.925 95.7673 179.762 95.8065C179.68 95.8262 179.614 95.8466 179.566 95.8625C179.543 95.8704 179.524 95.8773 179.51 95.8824C179.504 95.885 179.498 95.8871 179.494 95.8888L179.489 95.8908L179.487 95.8916V95.8918L179.486 95.892C179.486 95.892 179.486 95.8921 179.592 96.146L179.486 95.8921C179.346 95.9505 179.279 96.1115 179.338 96.2517C179.396 96.3917 179.557 96.458 179.697 96.4002Z" fill="#271749"/>
<path fill-rule="evenodd" clip-rule="evenodd" d="M173.877 97.0228V97.0219C173.878 97.0207 173.88 97.0183 173.882 97.0149C173.886 97.008 173.893 96.9968 173.903 96.9821C173.923 96.9527 173.954 96.9095 173.996 96.8585C174.08 96.7558 174.204 96.6252 174.366 96.5104C174.681 96.2863 175.141 96.1183 175.762 96.3484C175.904 96.4012 176.062 96.3286 176.115 96.1862C176.168 96.0438 176.095 95.8855 175.953 95.8326C175.128 95.5267 174.479 95.7553 174.047 96.0618C173.835 96.2124 173.676 96.3806 173.57 96.5104C173.517 96.5756 173.476 96.6321 173.448 96.6733C173.434 96.6939 173.423 96.7108 173.416 96.7231C173.412 96.7292 173.409 96.7342 173.406 96.738L173.403 96.7428V96.7444L173.402 96.7451V96.7453C173.402 96.7455 173.402 96.7456 173.64 96.8838L173.402 96.7456C173.326 96.8769 173.37 97.0453 173.501 97.1216C173.633 97.1977 173.8 97.1535 173.877 97.0228Z" fill="#271749"/>
<path fill-rule="evenodd" clip-rule="evenodd" d="M176.044 96.1455C176.15 95.8916 176.15 95.8916 176.15 95.8915L176.044 96.1455Z" fill="#271749"/>
<path d="M184.055 97.6941V94.5131C184.055 91.3006 181.452 88.6973 178.239 88.6973H177.014C173.801 88.6973 171.198 91.3006 171.198 94.5131V97.9334C171.198 98.1864 171.403 98.3913 171.656 98.3913C172.025 98.3913 172.324 98.0929 172.324 97.7229V95.9379C172.324 95.8567 172.39 95.7907 172.472 95.7907C172.943 95.7907 173.326 95.4084 173.326 94.9367V94.135H181.838V94.9642C181.838 95.4208 182.208 95.7894 182.663 95.7894C182.823 95.7894 182.952 95.9186 182.952 96.0782L182.998 97.3984C183.01 97.7587 183.296 98.0502 183.656 98.0695C183.874 98.0833 184.055 97.9113 184.055 97.6941Z" fill="#271749"/>
<path d="M48 142H168V146C168 148.209 166.209 150 164 150H52C49.7909 150 48 148.209 48 146V142Z" fill="#271749"/>
<path d="M96 190H191.197V194C191.197 196.209 189.406 198 187.197 198H100C97.7909 198 96 196.209 96 194V190Z" fill="#271749"/>
<path d="M456 142H288V146C288 148.209 289.791 150 292 150H452C454.209 150 456 148.209 456 146V142Z" fill="#271749"/>
<path d="M360 190H240V194C240 196.209 241.791 198 244 198H356C358.209 198 360 196.209 360 194V190Z" fill="#271749"/>
<path d="M408 94H240V98C240 100.209 241.791 102 244 102H404C406.209 102 408 100.209 408 98V94Z" fill="#271749"/>
<path d="M312 102H316V142H312V102Z" fill="#D9D9D9"/>
<path d="M312 110V102H316V106L312 110Z" fill="#271749"/>
<path d="M384 102H388V142H384V102Z" fill="#D9D9D9"/>
<path d="M384 110V102H388V106L384 110Z" fill="#271749"/>
<path d="M312 150H316V190H312V150Z" fill="#D9D9D9"/>
<path d="M312 158V150H316V154L312 158Z" fill="#271749"/>
<path d="M120 150H124V190H120V150Z" fill="#D9D9D9"/>
<path d="M120 158V150H124V154L120 158Z" fill="#271749"/>
<path d="M265.525 83.1099C265.525 81.066 264.72 79.022 262.14 77.4136C260.498 76.3749 258.086 75.3696 256.913 74.6995C255.673 73.9958 254.434 73.2921 254.434 71.9853C254.434 70.6115 255.539 69.6398 257.315 69.6398C258.756 69.6398 260.465 70.2429 262.274 71.9518L265.022 68.4C263.347 66.6576 261.504 65.6524 259.493 65.2503V62H255.238V65.2503C251.686 65.9874 249.273 68.534 249.273 72.1529C249.273 74.6325 250.48 76.5759 252.725 78.1173C254.299 79.156 256.612 80.1278 257.918 80.7979C259.125 81.4346 260.063 82.1382 260.063 83.4115C260.063 84.8188 258.89 85.9581 256.846 85.9581C254.702 85.9581 252.557 84.6513 251.317 82.4398L248 85.623C249.675 88.5047 252.289 90.0796 255.104 90.5487V94H259.326V90.4147C262.945 89.6105 265.525 86.9298 265.525 83.1099Z" fill="#FFC969"/>
<path d="M148 174H144V190H148V174Z" fill="white"/>
<path d="M344 174H340V190H344V174Z" fill="white"/>
<path d="M156 170H152V190H156V170Z" fill="#00C1EB"/>
<path d="M336 166H332V190H336V166Z" fill="#00C1EB"/>
<path d="M152 166H148V190H152V166Z" fill="#F9386A"/>
<path d="M340 178H336V190H340V178Z" fill="#F9386A"/>
<path d="M160 182H156V190H160V182Z" fill="#FFC969"/>
<path d="M348 170H344V190H348V170Z" fill="#FFC969"/>
<path d="M309 72.6665H302V93.9998H309V72.6665Z" fill="white"/>
<path d="M295 67.3335H288V94.0002H295V67.3335Z" fill="#00C1EB"/>
<path d="M302 62H295V94H302V62Z" fill="#F9386A"/>
<path d="M316 83.3335H309V94.0002H316V83.3335Z" fill="#FFC969"/>
<path d="M420 130C420 132.373 419.296 134.693 417.978 136.667C416.659 138.64 414.785 140.178 412.592 141.087C410.399 141.995 407.987 142.232 405.659 141.769C403.331 141.306 401.193 140.164 399.515 138.485C397.836 136.807 396.694 134.669 396.231 132.341C395.768 130.013 396.005 127.601 396.913 125.408C397.822 123.215 399.36 121.341 401.333 120.022C403.307 118.704 405.627 118 408 118V124C406.813 124 405.653 124.352 404.667 125.011C403.68 125.67 402.911 126.608 402.457 127.704C402.003 128.8 401.884 130.007 402.115 131.171C402.347 132.334 402.918 133.404 403.757 134.243C404.596 135.082 405.666 135.653 406.829 135.885C407.993 136.116 409.2 135.997 410.296 135.543C411.392 135.089 412.33 134.32 412.989 133.333C413.648 132.347 414 131.187 414 130H420Z" fill="#00C1EB"/>
<path d="M275.941 162.314C278.559 164.931 280.188 168.375 280.55 172.059C280.913 175.743 279.987 179.439 277.931 182.517C275.874 185.594 272.814 187.864 269.272 188.938C265.73 190.013 261.924 189.826 258.504 188.41C255.085 186.993 252.262 184.434 250.517 181.17C248.772 177.905 248.213 174.137 248.935 170.506C249.657 166.875 251.616 163.608 254.477 161.259C257.339 158.911 260.926 157.627 264.627 157.627V173.627L275.941 162.314Z" fill="#F9386A"/>
<path d="M79.2675 127.45C83.2628 127.45 86.497 124.445 86.497 120.78C86.497 117.042 83.2628 114 79.2675 114C75.2342 114 72 117.042 72 120.78C72 124.445 75.2342 127.45 79.2675 127.45ZM75.044 141.56H80.2568L100.766 114.476H95.5149L75.044 141.56ZM79.2675 123.859C77.5172 123.859 75.9952 122.539 75.9952 120.743C75.9952 118.948 77.4792 117.628 79.2675 117.628C80.9798 117.628 82.5018 118.948 82.5018 120.743C82.5018 122.539 80.9798 123.859 79.2675 123.859ZM96.7325 142C100.766 142 104 138.995 104 135.33C104 131.628 100.766 128.586 96.7325 128.586C92.6992 128.586 89.503 131.628 89.503 135.33C89.503 138.995 92.6992 142 96.7325 142ZM96.7325 138.408C95.0202 138.408 93.4982 137.126 93.4982 135.293C93.4982 133.497 94.9822 132.178 96.7325 132.178C98.5208 132.178 100.005 133.497 100.005 135.293C100.005 137.126 98.4828 138.408 96.7325 138.408Z" fill="#FFC969"/>
<path fill-rule="evenodd" clip-rule="evenodd" d="M305.218 141.153C311.247 142.42 317.162 138.561 318.43 132.532C319.697 126.503 315.838 120.588 309.809 119.32C303.78 118.053 297.865 121.912 296.597 127.941C295.33 133.97 299.189 139.885 305.218 141.153ZM301.482 131.818C302.989 132.135 304.468 131.17 304.785 129.663C305.101 128.155 304.137 126.677 302.629 126.36C301.122 126.043 299.643 127.008 299.326 128.515C299.009 130.022 299.974 131.501 301.482 131.818Z" fill="#FFC969"/>
<path d="M342.201 134.68L317.639 129.516L316.205 136.338L320.298 137.199L322.919 134.9L324.392 138.06L327.121 138.634L329.741 136.335L331.214 139.494L333.943 140.068L336.564 137.769L338.037 140.929L340.766 141.503L345.577 138.952L342.201 134.68Z" fill="#FFC969"/>
<path fill-rule="evenodd" clip-rule="evenodd" d="M376.046 53.8526C376.713 54.1072 377.049 54.8551 376.794 55.5231L369.718 74.086C369.463 74.7539 368.715 75.089 368.047 74.8343C367.379 74.5797 367.044 73.8318 367.299 73.1639L374.375 54.601C374.63 53.9331 375.378 53.598 376.046 53.8526Z" fill="white"/>
<path d="M377.145 53.3325L374.261 47.0238C374.201 47.0479 374.14 47.0737 374.082 47.1012C370.669 48.6276 369.171 52.6424 370.735 56.0669C372.299 59.4914 376.334 61.0281 379.749 59.5017C383.125 57.9908 384.627 54.0483 383.146 50.6497L377.145 53.3325Z" fill="#271749"/>
<path fill-rule="evenodd" clip-rule="evenodd" d="M364.675 52.4912C365.376 52.3475 366.06 52.7986 366.204 53.4989L370.194 72.9411C370.338 73.6413 369.887 74.3255 369.187 74.4692C368.486 74.613 367.802 74.1618 367.658 73.4616L363.668 54.0193C363.524 53.3191 363.975 52.635 364.675 52.4912Z" fill="white"/>
<path d="M364.546 51.5205L358.634 47.8379C358.598 47.8912 358.562 47.9463 358.528 47.9996C356.525 51.1402 357.502 55.3064 360.711 57.3043C363.919 59.3022 368.144 58.3781 370.147 55.2376C372.128 52.1314 371.193 48.0237 368.068 46L364.546 51.5205Z" fill="#271749"/>
<path d="M376.089 70.5016C376.205 70.2297 376.268 69.932 376.268 69.6188V68.0081C376.268 66.7622 375.258 65.7538 374.014 65.7538H365.202C363.956 65.7538 362.947 66.7639 362.947 68.0081V69.6188C362.947 69.975 363.032 70.3089 363.178 70.6083C359.476 72.811 357 76.8223 357 81.4067C357 88.3624 362.698 93.9999 369.727 93.9999C376.757 93.9999 382.455 88.3624 382.455 81.4067C382.455 76.7466 379.893 72.6802 376.089 70.5016Z" fill="#F9386A"/>
<path d="M299 178C299 180.373 298.296 182.693 296.978 184.667C295.659 186.64 293.785 188.178 291.592 189.087C289.399 189.995 286.987 190.232 284.659 189.769C282.331 189.306 280.193 188.164 278.515 186.485C276.836 184.807 275.694 182.669 275.231 180.341C274.768 178.013 275.005 175.601 275.913 173.408C276.822 171.215 278.36 169.341 280.333 168.022C282.307 166.704 284.627 166 287 166V178H299Z" fill="#00C1EB"/>
<path d="M299 178C299 179.708 298.635 181.397 297.93 182.952C297.225 184.508 296.196 185.896 294.912 187.022C293.628 188.148 292.118 188.987 290.483 189.483C288.849 189.979 287.127 190.12 285.434 189.897C283.74 189.674 282.114 189.092 280.663 188.19C279.213 187.288 277.971 186.087 277.022 184.667C276.073 183.247 275.439 181.64 275.16 179.955C274.882 178.269 274.967 176.544 275.409 174.894L287 178H299Z" fill="#271749"/>
<path d="M299 178C299 180.373 298.296 182.693 296.978 184.667C295.659 186.64 293.785 188.178 291.592 189.087C289.399 189.995 286.987 190.232 284.659 189.769C282.331 189.306 280.193 188.164 278.515 186.485L287 178H299Z" fill="#FFC969"/>
<path d="M420 130C420 132.373 419.296 134.693 417.978 136.667C416.659 138.64 414.785 140.178 412.592 141.087C410.399 141.995 407.987 142.232 405.659 141.769C403.331 141.306 401.193 140.164 399.515 138.485C397.836 136.807 396.694 134.669 396.231 132.341C395.768 130.013 396.005 127.601 396.913 125.408C397.822 123.215 399.36 121.341 401.333 120.022C403.307 118.704 405.627 118 408 118V124C406.813 124 405.653 124.352 404.667 125.011C403.68 125.67 402.911 126.608 402.457 127.704C402.003 128.8 401.884 130.007 402.115 131.171C402.347 132.334 402.918 133.404 403.757 134.243C404.596 135.082 405.666 135.653 406.829 135.885C407.993 136.116 409.2 135.997 410.296 135.543C411.392 135.089 412.33 134.32 412.989 133.333C413.648 132.347 414 131.187 414 130H420Z" fill="#00C1EB"/>
</svg>
